<?xml version="1.0" encoding="utf-8"?>
<!-- Generator: Adobe Illustrator 23.0.2, SVG Export Plug-In . SVG Version: 6.00 Build 0)  -->
<svg version="1.1" id="Camada_1" xmlns="http://www.w3.org/2000/svg" xmlns:xlink="http://www.w3.org/1999/xlink" x="0px" y="0px"
	 viewBox="0 0 256 306.4" style="enable-background:new 0 0 256 306.4;" xml:space="preserve">
<style type="text/css">
	.st0{fill:#EE4323;}
</style>
<path class="st0" d="M86.9,260.6C69.7,254,53.7,237,53.7,219.7c0-18.9,13.3-34.9,29.8-45.4c-2,6.8-3.1,12.9,1.9,19
	c4.6,5.6,12.6,8.3,20.2,6.9c17.7-3.5,18.5-21,8-31.2c-10.4-10.1-20.4-21.5-16.5-36.1c2-7.3,7-14.2,13.3-19.1
	c-4.9,11.5,9,22.9,18.1,28.6c15.9,9.8,33.2,17.2,47.8,28.8c15.3,12.1,26.7,28.5,24.4,47.4c-2.5,20.6-20.7,34.9-41.1,42.1
	c43.1-8.6,87.7-38.6,88.6-81.6c0.8-35.4-26.2-62.6-59.7-78.1l-1.7-0.9c0.9,2,1.2,3.7,1.2,5.2c0.3-1.1,0.5-2.3,0.6-3.5
	c0,1.5-0.2,2.9-0.6,4.2l0.1-0.7c-0.5,1.9-1.3,3.7-2.5,5.3l0.5-0.5c-6.7,9.9-24.7,12.1-33.6,1.8c-14.3-16.6,0.3-34.4,2.3-51.9
	C157.3,38,142,16.7,123,3.9c10.5,15.2-3.3,35.4-14.4,46.6c-10.7,10.9-23.7,20-35.5,29.9c-12.7,10.7-24.9,21.9-35.3,34.4
	c-20.9,25-33.6,56.5-24.3,87.7C22.9,233.7,52.9,253.6,86.9,260.6L86.9,260.6z"/>
</svg>
