<?xml version="1.0" encoding="utf-8"?>
<!-- Generator: Adobe Illustrator 23.0.2, SVG Export Plug-In . SVG Version: 6.00 Build 0)  -->
<svg version="1.1" id="Camada_1" xmlns="http://www.w3.org/2000/svg" xmlns:xlink="http://www.w3.org/1999/xlink" x="0px" y="0px"
	 viewBox="0 0 1280 800.8" style="enable-background:new 0 0 1280 800.8;" xml:space="preserve">
<style type="text/css">
	.st0{fill:none;}
	.st1{fill:#4E608A;}
	.st2{fill:#29F8FF;}
	.st3{opacity:0.6;fill:#FFCE83;}
	.st4{fill:url(#SVGID_2_3);stroke:url(#SVGID_2_);stroke-miterlimit:10;}
	.st5{fill:url(#SVGID_1_);}
	.st6{opacity:0.25;fill:none;stroke:#9BF0F2;stroke-width:15;stroke-miterlimit:10;}
</style>
<pattern  y="800.8" width="100" height="100" patternUnits="userSpaceOnUse" id="SVGID_1_" viewBox="0.1 -100 100 100" style="overflow:visible;">
	<g>
		<rect x="0.1" y="-100" class="st0" width="100" height="100"/>
		<g>
			<rect x="0.1" y="-100" class="st0" width="100" height="100"/>
			<g>
				<rect x="0.1" y="-100" class="st0" width="100" height="100"/>
				<g>
					<rect x="0.1" y="-100" class="st0" width="100" height="100"/>
					<g>
						<rect x="0.1" y="-100" class="st0" width="100" height="100"/>
						<g>
							<rect x="0.1" y="-100" class="st0" width="100" height="100"/>
							<path class="st1" d="M7.8-1.2C7.1-1.2,6.6-0.7,6.6,0H9C9-0.7,8.5-1.2,7.8-1.2L7.8-1.2z"/>
							<path class="st1" d="M15.5-1.2c-0.7,0-1.2,0.5-1.2,1.2h2.4C16.7-0.7,16.2-1.2,15.5-1.2L15.5-1.2z"/>
							<path class="st1" d="M23.2-1.2C22.5-1.2,22-0.7,22,0h2.4C24.4-0.7,23.9-1.2,23.2-1.2L23.2-1.2z"/>
							<path class="st1" d="M30.9-1.2c-0.7,0-1.2,0.5-1.2,1.2h2.4C32.1-0.7,31.5-1.2,30.9-1.2L30.9-1.2z"/>
							<path class="st1" d="M38.6-1.2c-0.7,0-1.2,0.5-1.2,1.2h2.4C39.8-0.7,39.2-1.2,38.6-1.2L38.6-1.2z"/>
							<path class="st1" d="M46.3-1.2c-0.7,0-1.2,0.5-1.2,1.2h2.4C47.5-0.7,46.9-1.2,46.3-1.2L46.3-1.2z"/>
							<path class="st1" d="M53.9-1.2c-0.7,0-1.2,0.5-1.2,1.2h2.4C55.2-0.7,54.6-1.2,53.9-1.2L53.9-1.2z"/>
							<path class="st1" d="M61.6-1.2c-0.7,0-1.2,0.5-1.2,1.2h2.4C62.9-0.7,62.3-1.2,61.6-1.2L61.6-1.2z"/>
							<path class="st1" d="M69.3-1.2c-0.7,0-1.2,0.5-1.2,1.2h2.4C70.6-0.7,70-1.2,69.3-1.2L69.3-1.2z"/>
							<path class="st1" d="M77-1.2c-0.7,0-1.2,0.5-1.2,1.2h2.4C78.2-0.7,77.7-1.2,77-1.2L77-1.2z"/>
							<path class="st1" d="M84.7-1.2c-0.7,0-1.2,0.5-1.2,1.2h2.4C85.9-0.7,85.4-1.2,84.7-1.2L84.7-1.2z"/>
							<path class="st1" d="M92.4-1.2c-0.7,0-1.2,0.5-1.2,1.2h2.4C93.6-0.7,93.1-1.2,92.4-1.2L92.4-1.2z"/>
							<path class="st1" d="M1.3-92.3L1.3-92.3c0,0.3-0.1,0.6-0.4,0.9C1.2-91.7,1.3-92,1.3-92.3L1.3-92.3z"/>
							<path class="st1" d="M1.3-84.6L1.3-84.6c0,0.3-0.1,0.6-0.4,0.9C1.2-84,1.3-84.3,1.3-84.6L1.3-84.6z"/>
							<path class="st1" d="M1.3-76.9L1.3-76.9c0,0.7-0.5,1.2-1.2,1.2l0,0C0.8-75.7,1.3-76.2,1.3-76.9L1.3-76.9z"/>
							<path class="st1" d="M1.3-69.2L1.3-69.2c0,0.6-0.5,1.2-1.2,1.2l0,0C0.8-68,1.3-68.6,1.3-69.2L1.3-69.2z"/>
							<path class="st1" d="M1.3-61.5L1.3-61.5c0,0.7-0.5,1.2-1.2,1.2l0,0C0.8-60.3,1.3-60.9,1.3-61.5L1.3-61.5z"/>
							<path class="st1" d="M1.3-53.8L1.3-53.8c0,0.7-0.5,1.2-1.2,1.2l0,0C0.8-52.6,1.3-53.2,1.3-53.8L1.3-53.8z"/>
							<path class="st1" d="M1.3-46.2L1.3-46.2c0,0.7-0.5,1.2-1.2,1.2l0,0C0.8-44.9,1.3-45.5,1.3-46.2L1.3-46.2z"/>
							<path class="st1" d="M1.3-38.5L1.3-38.5c0,0.7-0.5,1.2-1.2,1.2l0,0C0.8-37.2,1.3-37.8,1.3-38.5L1.3-38.5z"/>
							<path class="st1" d="M1.3-30.8L1.3-30.8c0,0.7-0.5,1.2-1.2,1.2l0,0C0.8-29.5,1.3-30.1,1.3-30.8L1.3-30.8z"/>
							<path class="st1" d="M1.3-23.1L1.3-23.1c0,0.7-0.5,1.2-1.2,1.2l0,0C0.8-21.9,1.3-22.4,1.3-23.1L1.3-23.1z"/>
							<path class="st1" d="M1.3-15.4L1.3-15.4c0,0.7-0.5,1.2-1.2,1.2l0,0C0.8-14.2,1.3-14.7,1.3-15.4L1.3-15.4z"/>
							<path class="st1" d="M1.3-7.7L1.3-7.7c0,0.7-0.5,1.2-1.2,1.2l0,0C0.8-6.5,1.3-7,1.3-7.7L1.3-7.7z"/>
							<path class="st1" d="M0.1-1.2V0h1.2C1.3-0.7,0.8-1.2,0.1-1.2L0.1-1.2z"/>
							<path class="st1" d="M7.8-98.8c0.7,0,1.2-0.5,1.2-1.2H6.6C6.6-99.3,7.1-98.8,7.8-98.8L7.8-98.8z"/>
							<path class="st1" d="M15.5-98.8c0.7,0,1.2-0.5,1.2-1.2h-2.4C14.3-99.3,14.8-98.8,15.5-98.8L15.5-98.8z"/>
							<path class="st1" d="M23.2-98.8c0.7,0,1.2-0.5,1.2-1.2H22C22-99.3,22.5-98.8,23.2-98.8L23.2-98.8z"/>
							<path class="st1" d="M30.9-98.8c0.6,0,1.2-0.5,1.2-1.2h-2.4C29.6-99.3,30.2-98.8,30.9-98.8L30.9-98.8z"/>
							<path class="st1" d="M38.6-98.8c0.7,0,1.2-0.5,1.2-1.2h-2.4C37.3-99.3,37.9-98.8,38.6-98.8L38.6-98.8z"/>
							<path class="st1" d="M46.3-98.8c0.7,0,1.2-0.5,1.2-1.2h-2.4C45-99.3,45.6-98.8,46.3-98.8L46.3-98.8z"/>
							<path class="st1" d="M53.9-98.8c0.7,0,1.2-0.5,1.2-1.2h-2.4C52.7-99.3,53.3-98.8,53.9-98.8L53.9-98.8z"/>
							<path class="st1" d="M61.6-98.8c0.7,0,1.2-0.5,1.2-1.2h-2.4C60.4-99.3,61-98.8,61.6-98.8L61.6-98.8z"/>
							<path class="st1" d="M69.3-98.8c0.7,0,1.2-0.5,1.2-1.2h-2.4C68.1-99.3,68.7-98.8,69.3-98.8L69.3-98.8z"/>
							<path class="st1" d="M77-98.8c0.7,0,1.2-0.5,1.2-1.2h-2.4C75.8-99.3,76.3-98.8,77-98.8L77-98.8z"/>
							<path class="st1" d="M84.7-98.8c0.7,0,1.2-0.5,1.2-1.2h-2.4C83.5-99.3,84-98.8,84.7-98.8L84.7-98.8z"/>
							<path class="st1" d="M92.4-98.8c0.7,0,1.2-0.5,1.2-1.2h-2.4C91.2-99.3,91.7-98.8,92.4-98.8L92.4-98.8z"/>
							<path class="st1" d="M1.3-100H0.1v1.2C0.8-98.8,1.3-99.3,1.3-100L1.3-100z"/>
							<path class="st1" d="M100.1-98.8v-1.2h-1.2C98.9-99.3,99.4-98.8,100.1-98.8L100.1-98.8z"/>
							<path class="st1" d="M7.8-93.5c-0.7,0-1.2,0.5-1.2,1.2c0,0.7,0.5,1.2,1.2,1.2S9-91.6,9-92.3C9-93,8.5-93.5,7.8-93.5L7.8-93.5
								z"/>
							<path class="st1" d="M15.5-93.5c-0.7,0-1.2,0.5-1.2,1.2c0,0.7,0.5,1.2,1.2,1.2c0.7,0,1.2-0.5,1.2-1.2
								C16.7-93,16.2-93.5,15.5-93.5L15.5-93.5z"/>
							<path class="st1" d="M23.2-93.5c-0.7,0-1.2,0.5-1.2,1.2c0,0.7,0.5,1.2,1.2,1.2s1.2-0.5,1.2-1.2C24.4-93,23.9-93.5,23.2-93.5
								L23.2-93.5z"/>
							<path class="st1" d="M30.9-93.5c-0.7,0-1.2,0.5-1.2,1.2c0,0.7,0.5,1.2,1.2,1.2s1.2-0.5,1.2-1.2C32.1-93,31.5-93.5,30.9-93.5
								L30.9-93.5z"/>
							<path class="st1" d="M38.6-93.5c-0.7,0-1.2,0.5-1.2,1.2c0,0.7,0.5,1.2,1.2,1.2s1.2-0.5,1.2-1.2C39.8-93,39.2-93.5,38.6-93.5
								L38.6-93.5z"/>
							<path class="st1" d="M46.3-93.5c-0.7,0-1.2,0.5-1.2,1.2c0,0.7,0.5,1.2,1.2,1.2s1.2-0.5,1.2-1.2C47.5-93,46.9-93.5,46.3-93.5
								L46.3-93.5z"/>
							<path class="st1" d="M53.9-93.5c-0.7,0-1.2,0.5-1.2,1.2c0,0.7,0.5,1.2,1.2,1.2s1.2-0.5,1.2-1.2C55.2-93,54.6-93.5,53.9-93.5
								L53.9-93.5z"/>
							<path class="st1" d="M61.6-93.5c-0.7,0-1.2,0.5-1.2,1.2c0,0.7,0.5,1.2,1.2,1.2s1.2-0.5,1.2-1.2C62.9-93,62.3-93.5,61.6-93.5
								L61.6-93.5z"/>
							<path class="st1" d="M69.3-93.5c-0.6,0-1.2,0.5-1.2,1.2c0,0.7,0.5,1.2,1.2,1.2s1.2-0.5,1.2-1.2C70.6-93,70-93.5,69.3-93.5
								L69.3-93.5z"/>
							<path class="st1" d="M77-93.5c-0.7,0-1.2,0.5-1.2,1.2c0,0.7,0.5,1.2,1.2,1.2s1.2-0.5,1.2-1.2C78.2-93,77.7-93.5,77-93.5
								L77-93.5z"/>
							<path class="st1" d="M84.7-93.5c-0.7,0-1.2,0.5-1.2,1.2c0,0.7,0.5,1.2,1.2,1.2s1.2-0.5,1.2-1.2C85.9-93,85.4-93.5,84.7-93.5
								L84.7-93.5z"/>
							<path class="st1" d="M92.4-93.5c-0.7,0-1.2,0.5-1.2,1.2c0,0.7,0.5,1.2,1.2,1.2s1.2-0.5,1.2-1.2C93.6-93,93.1-93.5,92.4-93.5
								L92.4-93.5z"/>
							<path class="st1" d="M1.3-92.3L1.3-92.3c0-0.7-0.5-1.2-1.2-1.2v2.4c0.3,0,0.6-0.1,0.9-0.4C1.2-91.7,1.3-92,1.3-92.3L1.3-92.3
								z"/>
							<path class="st1" d="M98.9-92.3L98.9-92.3c0-0.7,0.5-1.2,1.2-1.2l0,0C99.4-93.5,98.9-93,98.9-92.3L98.9-92.3z"/>
							<path class="st1" d="M7.8-85.8c-0.7,0-1.2,0.5-1.2,1.2c0,0.7,0.5,1.2,1.2,1.2S9-83.9,9-84.6C9-85.3,8.5-85.8,7.8-85.8
								L7.8-85.8z"/>
							<path class="st1" d="M15.5-85.8c-0.7,0-1.2,0.5-1.2,1.2c0,0.7,0.5,1.2,1.2,1.2c0.7,0,1.2-0.5,1.2-1.2
								C16.7-85.3,16.2-85.8,15.5-85.8L15.5-85.8z"/>
							<path class="st1" d="M23.2-85.8c-0.7,0-1.2,0.5-1.2,1.2c0,0.7,0.5,1.2,1.2,1.2s1.2-0.5,1.2-1.2
								C24.4-85.3,23.9-85.8,23.2-85.8L23.2-85.8z"/>
							<path class="st1" d="M30.9-85.8c-0.7,0-1.2,0.5-1.2,1.2c0,0.7,0.5,1.2,1.2,1.2s1.2-0.5,1.2-1.2
								C32.1-85.3,31.5-85.8,30.9-85.8L30.9-85.8z"/>
							<path class="st1" d="M38.6-85.8c-0.7,0-1.2,0.5-1.2,1.2c0,0.7,0.5,1.2,1.2,1.2s1.2-0.5,1.2-1.2
								C39.8-85.3,39.2-85.8,38.6-85.8L38.6-85.8z"/>
							<path class="st1" d="M46.3-85.8c-0.7,0-1.2,0.5-1.2,1.2c0,0.7,0.5,1.2,1.2,1.2s1.2-0.5,1.2-1.2
								C47.5-85.3,46.9-85.8,46.3-85.8L46.3-85.8z"/>
							<path class="st1" d="M53.9-85.8c-0.7,0-1.2,0.5-1.2,1.2c0,0.7,0.5,1.2,1.2,1.2s1.2-0.5,1.2-1.2
								C55.2-85.3,54.6-85.8,53.9-85.8L53.9-85.8z"/>
							<path class="st1" d="M61.6-85.8c-0.7,0-1.2,0.5-1.2,1.2c0,0.7,0.5,1.2,1.2,1.2s1.2-0.5,1.2-1.2
								C62.9-85.3,62.3-85.8,61.6-85.8L61.6-85.8z"/>
							<path class="st1" d="M69.3-85.8c-0.7,0-1.2,0.5-1.2,1.2c0,0.7,0.5,1.2,1.2,1.2s1.2-0.5,1.2-1.2C70.6-85.3,70-85.8,69.3-85.8
								L69.3-85.8z"/>
							<path class="st1" d="M77-85.8c-0.7,0-1.2,0.5-1.2,1.2c0,0.7,0.5,1.2,1.2,1.2s1.2-0.5,1.2-1.2C78.2-85.3,77.7-85.8,77-85.8
								L77-85.8z"/>
							<path class="st1" d="M84.7-85.8c-0.7,0-1.2,0.5-1.2,1.2c0,0.7,0.5,1.2,1.2,1.2s1.2-0.5,1.2-1.2
								C85.9-85.3,85.4-85.8,84.7-85.8L84.7-85.8z"/>
							<path class="st1" d="M92.4-85.8c-0.7,0-1.2,0.5-1.2,1.2c0,0.7,0.5,1.2,1.2,1.2s1.2-0.5,1.2-1.2
								C93.6-85.3,93.1-85.8,92.4-85.8L92.4-85.8z"/>
							<path class="st1" d="M1.3-84.6L1.3-84.6c0-0.3-0.1-0.6-0.4-0.9c-0.2-0.2-0.5-0.4-0.9-0.4v2.4c0.3,0,0.6-0.1,0.9-0.4
								C1.2-84,1.3-84.3,1.3-84.6L1.3-84.6z"/>
							<path class="st1" d="M98.9-84.6L98.9-84.6c0-0.3,0.1-0.6,0.4-0.9C99-85.3,98.9-85,98.9-84.6L98.9-84.6z"/>
							<path class="st1" d="M7.8-78.1c-0.7,0-1.2,0.5-1.2,1.2c0,0.7,0.5,1.2,1.2,1.2S9-76.2,9-76.9C9-77.6,8.5-78.1,7.8-78.1
								L7.8-78.1z"/>
							<path class="st1" d="M15.5-78.1c-0.7,0-1.2,0.5-1.2,1.2c0,0.7,0.5,1.2,1.2,1.2c0.7,0,1.2-0.5,1.2-1.2
								C16.7-77.6,16.2-78.1,15.5-78.1L15.5-78.1z"/>
							<path class="st1" d="M23.2-78.1c-0.7,0-1.2,0.5-1.2,1.2c0,0.7,0.5,1.2,1.2,1.2s1.2-0.5,1.2-1.2
								C24.4-77.6,23.9-78.1,23.2-78.1L23.2-78.1z"/>
							<path class="st1" d="M30.9-78.1c-0.7,0-1.2,0.5-1.2,1.2c0,0.7,0.5,1.2,1.2,1.2s1.2-0.5,1.2-1.2
								C32.1-77.6,31.5-78.1,30.9-78.1L30.9-78.1z"/>
							<path class="st1" d="M38.6-78.1c-0.7,0-1.2,0.5-1.2,1.2c0,0.7,0.5,1.2,1.2,1.2s1.2-0.5,1.2-1.2
								C39.8-77.6,39.2-78.1,38.6-78.1L38.6-78.1z"/>
							<path class="st1" d="M46.3-78.1c-0.7,0-1.2,0.5-1.2,1.2c0,0.7,0.5,1.2,1.2,1.2s1.2-0.5,1.2-1.2
								C47.5-77.6,46.9-78.1,46.3-78.1L46.3-78.1z"/>
							<path class="st1" d="M53.9-78.1c-0.7,0-1.2,0.5-1.2,1.2c0,0.7,0.5,1.2,1.2,1.2s1.2-0.5,1.2-1.2
								C55.2-77.6,54.6-78.1,53.9-78.1L53.9-78.1z"/>
							<path class="st1" d="M61.6-78.1c-0.7,0-1.2,0.5-1.2,1.2c0,0.7,0.5,1.2,1.2,1.2s1.2-0.5,1.2-1.2
								C62.9-77.6,62.3-78.1,61.6-78.1L61.6-78.1z"/>
							<path class="st1" d="M69.3-78.1c-0.7,0-1.2,0.5-1.2,1.2c0,0.7,0.5,1.2,1.2,1.2s1.2-0.5,1.2-1.2C70.6-77.6,70-78.1,69.3-78.1
								L69.3-78.1z"/>
							<path class="st1" d="M77-78.1c-0.7,0-1.2,0.5-1.2,1.2c0,0.7,0.5,1.2,1.2,1.2s1.2-0.5,1.2-1.2C78.2-77.6,77.7-78.1,77-78.1
								L77-78.1z"/>
							<path class="st1" d="M84.7-78.1c-0.7,0-1.2,0.5-1.2,1.2c0,0.7,0.5,1.2,1.2,1.2s1.2-0.5,1.2-1.2
								C85.9-77.6,85.4-78.1,84.7-78.1L84.7-78.1z"/>
							<path class="st1" d="M92.4-78.1c-0.7,0-1.2,0.5-1.2,1.2c0,0.7,0.5,1.2,1.2,1.2s1.2-0.5,1.2-1.2
								C93.6-77.6,93.1-78.1,92.4-78.1L92.4-78.1z"/>
							<path class="st1" d="M1.3-76.9L1.3-76.9c0-0.7-0.5-1.2-1.2-1.2v2.4C0.8-75.7,1.3-76.2,1.3-76.9L1.3-76.9z"/>
							<path class="st1" d="M98.9-76.9L98.9-76.9c0-0.7,0.5-1.2,1.2-1.2l0,0C99.4-78.1,98.9-77.6,98.9-76.9L98.9-76.9z"/>
							<path class="st1" d="M7.8-70.5c-0.7,0-1.2,0.5-1.2,1.2c0,0.7,0.5,1.3,1.2,1.3S9-68.5,9-69.2C9-69.9,8.5-70.5,7.8-70.5
								L7.8-70.5z"/>
							<path class="st1" d="M15.5-70.5c-0.7,0-1.2,0.5-1.2,1.2c0,0.7,0.5,1.2,1.2,1.2c0.7,0,1.2-0.5,1.2-1.2
								C16.7-69.9,16.2-70.5,15.5-70.5L15.5-70.5z"/>
							<path class="st1" d="M23.2-70.5c-0.7,0-1.2,0.5-1.2,1.2c0,0.7,0.5,1.2,1.2,1.2s1.2-0.5,1.2-1.2
								C24.4-69.9,23.9-70.5,23.2-70.5L23.2-70.5z"/>
							<path class="st1" d="M30.9-70.5c-0.7,0-1.2,0.5-1.2,1.2c0,0.7,0.5,1.2,1.2,1.2s1.2-0.5,1.2-1.2
								C32.1-69.9,31.5-70.5,30.9-70.5L30.9-70.5z"/>
							<path class="st1" d="M38.6-70.5c-0.7,0-1.2,0.5-1.2,1.2c0,0.7,0.5,1.2,1.2,1.2s1.2-0.5,1.2-1.2
								C39.8-69.9,39.2-70.5,38.6-70.5L38.6-70.5z"/>
							<path class="st1" d="M46.3-70.5c-0.7,0-1.2,0.5-1.2,1.2c0,0.7,0.5,1.2,1.2,1.2s1.2-0.5,1.2-1.2
								C47.5-69.9,46.9-70.5,46.3-70.5L46.3-70.5z"/>
							<path class="st1" d="M53.9-70.5c-0.7,0-1.2,0.5-1.2,1.2c0,0.7,0.5,1.2,1.2,1.2s1.2-0.5,1.2-1.2
								C55.2-69.9,54.6-70.5,53.9-70.5L53.9-70.5z"/>
							<path class="st1" d="M61.6-70.5c-0.7,0-1.2,0.5-1.2,1.2c0,0.7,0.5,1.2,1.2,1.2s1.2-0.5,1.2-1.2
								C62.9-69.9,62.3-70.5,61.6-70.5L61.6-70.5z"/>
							<path class="st1" d="M69.3-70.5c-0.7,0-1.2,0.5-1.2,1.2c0,0.7,0.5,1.2,1.2,1.2s1.2-0.5,1.2-1.2C70.6-69.9,70-70.5,69.3-70.5
								L69.3-70.5z"/>
							<path class="st1" d="M77-70.5c-0.7,0-1.2,0.5-1.2,1.2c0,0.7,0.5,1.2,1.2,1.2s1.2-0.5,1.2-1.2C78.2-69.9,77.7-70.5,77-70.5
								L77-70.5z"/>
							<path class="st1" d="M84.7-70.5c-0.7,0-1.2,0.5-1.2,1.2c0,0.7,0.5,1.2,1.2,1.2s1.2-0.5,1.2-1.2
								C85.9-69.9,85.4-70.5,84.7-70.5L84.7-70.5z"/>
							<path class="st1" d="M92.4-70.5c-0.7,0-1.2,0.5-1.2,1.2c0,0.7,0.5,1.2,1.2,1.2s1.2-0.5,1.2-1.2
								C93.6-69.9,93.1-70.5,92.4-70.5L92.4-70.5z"/>
							<path class="st1" d="M1.3-69.2L1.3-69.2c0-0.7-0.5-1.2-1.2-1.2v2.4C0.8-68,1.3-68.6,1.3-69.2L1.3-69.2z"/>
							<path class="st1" d="M98.9-69.2L98.9-69.2c0-0.7,0.5-1.2,1.2-1.2l0,0C99.4-70.5,98.9-69.9,98.9-69.2L98.9-69.2z"/>
							<path class="st1" d="M7.8-62.8c-0.7,0-1.2,0.5-1.2,1.2s0.5,1.2,1.2,1.2S9-60.9,9-61.6C9-62.2,8.5-62.8,7.8-62.8L7.8-62.8z"/>
							<path class="st1" d="M15.5-62.8c-0.7,0-1.2,0.5-1.2,1.2s0.5,1.2,1.2,1.2c0.7,0,1.2-0.5,1.2-1.2
								C16.7-62.2,16.2-62.8,15.5-62.8L15.5-62.8z"/>
							<path class="st1" d="M23.2-62.8c-0.7,0-1.2,0.5-1.2,1.2s0.5,1.2,1.2,1.2s1.2-0.5,1.2-1.2C24.4-62.2,23.9-62.8,23.2-62.8
								L23.2-62.8z"/>
							<path class="st1" d="M30.9-62.8c-0.7,0-1.2,0.5-1.2,1.2s0.5,1.2,1.2,1.2s1.2-0.5,1.2-1.2C32.1-62.2,31.5-62.8,30.9-62.8
								L30.9-62.8z"/>
							<path class="st1" d="M38.6-62.8c-0.7,0-1.2,0.5-1.2,1.2s0.5,1.2,1.2,1.2s1.2-0.5,1.2-1.2C39.8-62.2,39.2-62.8,38.6-62.8
								L38.6-62.8z"/>
							<path class="st1" d="M46.3-62.8c-0.7,0-1.2,0.5-1.2,1.2s0.5,1.2,1.2,1.2s1.2-0.5,1.2-1.2C47.5-62.2,46.9-62.8,46.3-62.8
								L46.3-62.8z"/>
							<path class="st1" d="M53.9-62.8c-0.7,0-1.2,0.5-1.2,1.2s0.5,1.2,1.2,1.2s1.2-0.5,1.2-1.2C55.2-62.2,54.6-62.8,53.9-62.8
								L53.9-62.8z"/>
							<path class="st1" d="M61.6-62.8c-0.7,0-1.2,0.5-1.2,1.2s0.5,1.2,1.2,1.2s1.2-0.5,1.2-1.2C62.9-62.2,62.3-62.8,61.6-62.8
								L61.6-62.8z"/>
							<path class="st1" d="M69.3-62.8c-0.7,0-1.2,0.5-1.2,1.2s0.5,1.2,1.2,1.2s1.2-0.5,1.2-1.2C70.6-62.2,70-62.8,69.3-62.8
								L69.3-62.8z"/>
							<path class="st1" d="M77-62.8c-0.7,0-1.2,0.5-1.2,1.2s0.5,1.2,1.2,1.2s1.2-0.5,1.2-1.2C78.2-62.2,77.7-62.8,77-62.8L77-62.8z
								"/>
							<path class="st1" d="M84.7-62.8c-0.7,0-1.2,0.5-1.2,1.2s0.5,1.2,1.2,1.2s1.2-0.5,1.2-1.2C85.9-62.2,85.4-62.8,84.7-62.8
								L84.7-62.8z"/>
							<path class="st1" d="M92.4-62.8c-0.7,0-1.2,0.5-1.2,1.2s0.5,1.2,1.2,1.2s1.2-0.5,1.2-1.2C93.6-62.2,93.1-62.8,92.4-62.8
								L92.4-62.8z"/>
							<path class="st1" d="M1.3-61.5L1.3-61.5c0-0.7-0.5-1.2-1.2-1.2v2.4C0.8-60.3,1.3-60.9,1.3-61.5L1.3-61.5z"/>
							<path class="st1" d="M98.9-61.5L98.9-61.5c0-0.7,0.5-1.2,1.2-1.2l0,0C99.4-62.8,98.9-62.2,98.9-61.5L98.9-61.5z"/>
							<path class="st1" d="M7.8-55.1c-0.7,0-1.2,0.5-1.2,1.2s0.5,1.2,1.2,1.2S9-53.2,9-53.9C9-54.5,8.5-55.1,7.8-55.1L7.8-55.1z"/>
							<path class="st1" d="M15.5-55.1c-0.7,0-1.2,0.5-1.2,1.2s0.5,1.2,1.2,1.2c0.7,0,1.2-0.5,1.2-1.2
								C16.7-54.5,16.2-55.1,15.5-55.1L15.5-55.1z"/>
							<path class="st1" d="M23.2-55.1c-0.7,0-1.2,0.5-1.2,1.2s0.5,1.2,1.2,1.2s1.2-0.5,1.2-1.2C24.4-54.5,23.9-55.1,23.2-55.1
								L23.2-55.1z"/>
							<path class="st1" d="M30.9-55.1c-0.7,0-1.2,0.5-1.2,1.2s0.5,1.2,1.2,1.2s1.2-0.5,1.2-1.2C32.1-54.5,31.5-55.1,30.9-55.1
								L30.9-55.1z"/>
							<path class="st1" d="M38.6-55.1c-0.7,0-1.2,0.5-1.2,1.2s0.5,1.2,1.2,1.2s1.2-0.5,1.2-1.2C39.8-54.5,39.2-55.1,38.6-55.1
								L38.6-55.1z"/>
							<path class="st1" d="M46.3-55.1c-0.7,0-1.2,0.5-1.2,1.2s0.5,1.2,1.2,1.2s1.2-0.5,1.2-1.2C47.5-54.5,46.9-55.1,46.3-55.1
								L46.3-55.1z"/>
							<path class="st1" d="M53.9-55.1c-0.7,0-1.2,0.5-1.2,1.2s0.5,1.2,1.2,1.2s1.2-0.5,1.2-1.2C55.2-54.5,54.6-55.1,53.9-55.1
								L53.9-55.1z"/>
							<path class="st1" d="M61.6-55.1c-0.7,0-1.2,0.5-1.2,1.2s0.5,1.2,1.2,1.2s1.2-0.5,1.2-1.2C62.9-54.5,62.3-55.1,61.6-55.1
								L61.6-55.1z"/>
							<path class="st1" d="M69.3-55.1c-0.7,0-1.2,0.5-1.2,1.2s0.5,1.2,1.2,1.2s1.2-0.5,1.2-1.2C70.6-54.5,70-55.1,69.3-55.1
								L69.3-55.1z"/>
							<path class="st1" d="M77-55.1c-0.7,0-1.2,0.5-1.2,1.2s0.5,1.2,1.2,1.2s1.2-0.5,1.2-1.2C78.2-54.5,77.7-55.1,77-55.1L77-55.1z
								"/>
							<path class="st1" d="M84.7-55.1c-0.7,0-1.2,0.5-1.2,1.2s0.5,1.2,1.2,1.2s1.2-0.5,1.2-1.2C85.9-54.5,85.4-55.1,84.7-55.1
								L84.7-55.1z"/>
							<path class="st1" d="M92.4-55.1c-0.7,0-1.2,0.5-1.2,1.2s0.5,1.2,1.2,1.2s1.2-0.5,1.2-1.2C93.6-54.5,93.1-55.1,92.4-55.1
								L92.4-55.1z"/>
							<path class="st1" d="M1.3-53.8L1.3-53.8c0-0.7-0.5-1.2-1.2-1.2v2.4C0.8-52.6,1.3-53.2,1.3-53.8L1.3-53.8z"/>
							<path class="st1" d="M98.9-53.8L98.9-53.8c0-0.7,0.5-1.2,1.2-1.2l0,0C99.4-55.1,98.9-54.5,98.9-53.8L98.9-53.8z"/>
							<path class="st1" d="M7.8-47.4c-0.7,0-1.2,0.5-1.2,1.2S7.1-45,7.8-45S9-45.5,9-46.2C9-46.8,8.5-47.4,7.8-47.4L7.8-47.4z"/>
							<path class="st1" d="M15.5-47.4c-0.7,0-1.2,0.5-1.2,1.2s0.5,1.2,1.2,1.2c0.7,0,1.2-0.5,1.2-1.2
								C16.7-46.8,16.2-47.4,15.5-47.4L15.5-47.4z"/>
							<path class="st1" d="M23.2-47.4c-0.7,0-1.2,0.5-1.2,1.2s0.5,1.2,1.2,1.2s1.2-0.5,1.2-1.2C24.4-46.8,23.9-47.4,23.2-47.4
								L23.2-47.4z"/>
							<path class="st1" d="M30.9-47.4c-0.7,0-1.2,0.5-1.2,1.2s0.5,1.2,1.2,1.2s1.2-0.5,1.2-1.2C32.1-46.8,31.5-47.4,30.9-47.4
								L30.9-47.4z"/>
							<path class="st1" d="M38.6-47.4c-0.7,0-1.2,0.5-1.2,1.2s0.5,1.2,1.2,1.2s1.2-0.5,1.2-1.2C39.8-46.8,39.2-47.4,38.6-47.4
								L38.6-47.4z"/>
							<path class="st1" d="M46.3-47.4c-0.7,0-1.2,0.5-1.2,1.2s0.5,1.2,1.2,1.2s1.2-0.5,1.2-1.2C47.5-46.8,46.9-47.4,46.3-47.4
								L46.3-47.4z"/>
							<path class="st1" d="M53.9-47.4c-0.7,0-1.2,0.5-1.2,1.2s0.5,1.2,1.2,1.2s1.2-0.5,1.2-1.2C55.2-46.8,54.6-47.4,53.9-47.4
								L53.9-47.4z"/>
							<path class="st1" d="M61.6-47.4c-0.7,0-1.2,0.5-1.2,1.2s0.5,1.2,1.2,1.2s1.2-0.5,1.2-1.2C62.9-46.8,62.3-47.4,61.6-47.4
								L61.6-47.4z"/>
							<path class="st1" d="M69.3-47.4c-0.7,0-1.2,0.5-1.2,1.2s0.5,1.2,1.2,1.2s1.2-0.5,1.2-1.2C70.6-46.8,70-47.4,69.3-47.4
								L69.3-47.4z"/>
							<path class="st1" d="M77-47.4c-0.7,0-1.2,0.5-1.2,1.2S76.3-45,77-45s1.2-0.5,1.2-1.2C78.2-46.8,77.7-47.4,77-47.4L77-47.4z"
								/>
							<path class="st1" d="M84.7-47.4c-0.7,0-1.2,0.5-1.2,1.2S84-45,84.7-45s1.2-0.5,1.2-1.2C85.9-46.8,85.4-47.4,84.7-47.4
								L84.7-47.4z"/>
							<path class="st1" d="M92.4-47.4c-0.7,0-1.2,0.5-1.2,1.2s0.5,1.2,1.2,1.2s1.2-0.5,1.2-1.2C93.6-46.8,93.1-47.4,92.4-47.4
								L92.4-47.4z"/>
							<path class="st1" d="M1.3-46.2L1.3-46.2c0-0.7-0.5-1.2-1.2-1.2v2.4C0.8-44.9,1.3-45.5,1.3-46.2L1.3-46.2z"/>
							<path class="st1" d="M98.9-46.2L98.9-46.2c0-0.7,0.5-1.2,1.2-1.2l0,0C99.4-47.4,98.9-46.8,98.9-46.2L98.9-46.2z"/>
							<path class="st1" d="M7.8-39.7c-0.7,0-1.2,0.5-1.2,1.2s0.5,1.2,1.2,1.2S9-37.8,9-38.5C9-39.1,8.5-39.7,7.8-39.7L7.8-39.7z"/>
							<path class="st1" d="M15.5-39.7c-0.7,0-1.2,0.5-1.2,1.2s0.5,1.2,1.2,1.2c0.7,0,1.2-0.5,1.2-1.2
								C16.7-39.1,16.2-39.7,15.5-39.7L15.5-39.7z"/>
							<path class="st1" d="M23.2-39.7c-0.7,0-1.2,0.5-1.2,1.2s0.5,1.2,1.2,1.2s1.2-0.5,1.2-1.2C24.4-39.1,23.9-39.7,23.2-39.7
								L23.2-39.7z"/>
							<path class="st1" d="M30.9-39.7c-0.7,0-1.2,0.5-1.2,1.2s0.5,1.2,1.2,1.2s1.2-0.5,1.2-1.2C32.1-39.1,31.5-39.7,30.9-39.7
								L30.9-39.7z"/>
							<path class="st1" d="M38.6-39.7c-0.7,0-1.2,0.5-1.2,1.2s0.5,1.2,1.2,1.2s1.2-0.5,1.2-1.2C39.8-39.1,39.2-39.7,38.6-39.7
								L38.6-39.7z"/>
							<path class="st1" d="M46.3-39.7c-0.7,0-1.2,0.5-1.2,1.2s0.5,1.2,1.2,1.2s1.2-0.5,1.2-1.2C47.5-39.1,46.9-39.7,46.3-39.7
								L46.3-39.7z"/>
							<path class="st1" d="M53.9-39.7c-0.7,0-1.2,0.5-1.2,1.2s0.5,1.2,1.2,1.2s1.2-0.5,1.2-1.2C55.2-39.1,54.6-39.7,53.9-39.7
								L53.9-39.7z"/>
							<path class="st1" d="M61.6-39.7c-0.7,0-1.2,0.5-1.2,1.2s0.5,1.2,1.2,1.2s1.2-0.5,1.2-1.2C62.9-39.1,62.3-39.7,61.6-39.7
								L61.6-39.7z"/>
							<path class="st1" d="M69.3-39.7c-0.7,0-1.2,0.5-1.2,1.2s0.5,1.2,1.2,1.2s1.2-0.5,1.2-1.2C70.6-39.1,70-39.7,69.3-39.7
								L69.3-39.7z"/>
							<path class="st1" d="M77-39.7c-0.7,0-1.2,0.5-1.2,1.2s0.5,1.2,1.2,1.2s1.2-0.5,1.2-1.2C78.2-39.1,77.7-39.7,77-39.7L77-39.7z
								"/>
							<path class="st1" d="M84.7-39.7c-0.7,0-1.2,0.5-1.2,1.2s0.5,1.2,1.2,1.2s1.2-0.5,1.2-1.2C85.9-39.1,85.4-39.7,84.7-39.7
								L84.7-39.7z"/>
							<path class="st1" d="M92.4-39.7c-0.7,0-1.2,0.5-1.2,1.2s0.5,1.2,1.2,1.2s1.2-0.5,1.2-1.2C93.6-39.1,93.1-39.7,92.4-39.7
								L92.4-39.7z"/>
							<path class="st1" d="M1.3-38.5L1.3-38.5c0-0.7-0.5-1.2-1.2-1.2v2.4C0.8-37.2,1.3-37.8,1.3-38.5L1.3-38.5z"/>
							<path class="st1" d="M98.9-38.5L98.9-38.5c0-0.7,0.5-1.2,1.2-1.2l0,0C99.4-39.7,98.9-39.1,98.9-38.5L98.9-38.5z"/>
							<path class="st1" d="M7.8-32c-0.7,0-1.2,0.5-1.2,1.2s0.5,1.2,1.2,1.2S9-30.1,9-30.8C9-31.5,8.5-32,7.8-32L7.8-32z"/>
							<path class="st1" d="M15.5-32c-0.7,0-1.2,0.5-1.2,1.2s0.5,1.2,1.2,1.2c0.7,0,1.2-0.5,1.2-1.2S16.2-32,15.5-32L15.5-32z"/>
							<path class="st1" d="M23.2-32c-0.7,0-1.2,0.5-1.2,1.2s0.5,1.2,1.2,1.2s1.2-0.5,1.2-1.2C24.4-31.5,23.9-32,23.2-32L23.2-32z"
								/>
							<path class="st1" d="M30.9-32c-0.7,0-1.2,0.5-1.2,1.2s0.5,1.2,1.2,1.2s1.2-0.5,1.2-1.2S31.5-32,30.9-32L30.9-32z"/>
							<path class="st1" d="M38.6-32c-0.7,0-1.2,0.5-1.2,1.2s0.5,1.2,1.2,1.2s1.2-0.5,1.2-1.2S39.2-32,38.6-32L38.6-32z"/>
							<path class="st1" d="M46.3-32c-0.7,0-1.2,0.5-1.2,1.2s0.5,1.2,1.2,1.2s1.2-0.5,1.2-1.2S46.9-32,46.3-32L46.3-32z"/>
							<path class="st1" d="M53.9-32c-0.7,0-1.2,0.5-1.2,1.2s0.5,1.2,1.2,1.2s1.2-0.5,1.2-1.2C55.1-31.5,54.6-32,53.9-32L53.9-32z"
								/>
							<path class="st1" d="M61.6-32c-0.7,0-1.2,0.5-1.2,1.2s0.5,1.2,1.2,1.2s1.2-0.5,1.2-1.2S62.3-32,61.6-32L61.6-32z"/>
							<path class="st1" d="M69.3-32c-0.7,0-1.2,0.5-1.2,1.2s0.5,1.2,1.2,1.2s1.2-0.5,1.2-1.2S70-32,69.3-32L69.3-32z"/>
							<path class="st1" d="M77-32c-0.7,0-1.2,0.5-1.2,1.2s0.5,1.2,1.2,1.2s1.2-0.5,1.2-1.2S77.7-32,77-32L77-32z"/>
							<path class="st1" d="M84.7-32c-0.7,0-1.2,0.5-1.2,1.2s0.5,1.2,1.2,1.2s1.2-0.5,1.2-1.2C85.9-31.5,85.4-32,84.7-32L84.7-32z"
								/>
							<path class="st1" d="M92.4-32c-0.7,0-1.2,0.5-1.2,1.2s0.5,1.2,1.2,1.2s1.2-0.5,1.2-1.2S93.1-32,92.4-32L92.4-32z"/>
							<path class="st1" d="M1.3-30.8L1.3-30.8c0-0.6-0.5-1.2-1.2-1.2v2.4C0.8-29.5,1.3-30.1,1.3-30.8L1.3-30.8z"/>
							<path class="st1" d="M98.9-30.8L98.9-30.8c0-0.7,0.5-1.2,1.2-1.2l0,0C99.4-32,98.9-31.4,98.9-30.8L98.9-30.8z"/>
							<path class="st1" d="M7.8-24.3c-0.7,0-1.2,0.5-1.2,1.2s0.5,1.2,1.2,1.2S9-22.4,9-23.1C9-23.8,8.5-24.3,7.8-24.3L7.8-24.3z"/>
							<path class="st1" d="M15.5-24.3c-0.7,0-1.2,0.5-1.2,1.2s0.5,1.2,1.2,1.2c0.7,0,1.2-0.5,1.2-1.2S16.2-24.3,15.5-24.3
								L15.5-24.3z"/>
							<path class="st1" d="M23.2-24.3c-0.7,0-1.2,0.5-1.2,1.2s0.5,1.2,1.2,1.2s1.2-0.5,1.2-1.2C24.4-23.8,23.9-24.3,23.2-24.3
								L23.2-24.3z"/>
							<path class="st1" d="M30.9-24.3c-0.7,0-1.2,0.5-1.2,1.2s0.5,1.2,1.2,1.2s1.2-0.5,1.2-1.2S31.5-24.3,30.9-24.3L30.9-24.3z"/>
							<path class="st1" d="M38.6-24.3c-0.7,0-1.2,0.5-1.2,1.2s0.5,1.2,1.2,1.2s1.2-0.5,1.2-1.2S39.2-24.3,38.6-24.3L38.6-24.3z"/>
							<path class="st1" d="M46.3-24.3c-0.7,0-1.2,0.5-1.2,1.2s0.5,1.2,1.2,1.2s1.2-0.5,1.2-1.2S46.9-24.3,46.3-24.3L46.3-24.3z"/>
							<path class="st1" d="M53.9-24.3c-0.7,0-1.2,0.5-1.2,1.2s0.5,1.2,1.2,1.2s1.2-0.5,1.2-1.2C55.2-23.8,54.6-24.3,53.9-24.3
								L53.9-24.3z"/>
							<path class="st1" d="M61.6-24.3c-0.7,0-1.2,0.5-1.2,1.2s0.5,1.2,1.2,1.2s1.2-0.5,1.2-1.2C62.9-23.8,62.3-24.3,61.6-24.3
								L61.6-24.3z"/>
							<path class="st1" d="M69.3-24.3c-0.7,0-1.2,0.5-1.2,1.2s0.5,1.2,1.2,1.2s1.2-0.5,1.2-1.2C70.6-23.8,70-24.3,69.3-24.3
								L69.3-24.3z"/>
							<path class="st1" d="M77-24.3c-0.7,0-1.2,0.5-1.2,1.2s0.5,1.2,1.2,1.2s1.2-0.5,1.2-1.2S77.7-24.3,77-24.3L77-24.3z"/>
							<path class="st1" d="M84.7-24.3c-0.7,0-1.2,0.5-1.2,1.2s0.5,1.2,1.2,1.2s1.2-0.5,1.2-1.2C85.9-23.8,85.4-24.3,84.7-24.3
								L84.7-24.3z"/>
							<path class="st1" d="M92.4-24.3c-0.7,0-1.2,0.5-1.2,1.2s0.5,1.2,1.2,1.2s1.2-0.5,1.2-1.2S93.1-24.3,92.4-24.3L92.4-24.3z"/>
							<path class="st1" d="M1.3-23.1L1.3-23.1c0-0.7-0.5-1.2-1.2-1.2v2.4C0.8-21.9,1.3-22.4,1.3-23.1L1.3-23.1z"/>
							<path class="st1" d="M98.9-23.1L98.9-23.1c0-0.7,0.5-1.2,1.2-1.2l0,0C99.4-24.3,98.9-23.8,98.9-23.1L98.9-23.1z"/>
							<path class="st1" d="M7.8-16.6c-0.7,0-1.2,0.5-1.2,1.2s0.5,1.2,1.2,1.2S9-14.7,9-15.4C9-16.1,8.5-16.6,7.8-16.6L7.8-16.6z"/>
							<path class="st1" d="M15.5-16.6c-0.7,0-1.2,0.5-1.2,1.2s0.5,1.2,1.2,1.2c0.7,0,1.2-0.5,1.2-1.2S16.2-16.6,15.5-16.6
								L15.5-16.6z"/>
							<path class="st1" d="M23.2-16.6c-0.7,0-1.2,0.5-1.2,1.2s0.5,1.2,1.2,1.2s1.2-0.5,1.2-1.2C24.4-16.1,23.9-16.6,23.2-16.6
								L23.2-16.6z"/>
							<path class="st1" d="M30.9-16.6c-0.7,0-1.2,0.5-1.2,1.2s0.5,1.2,1.2,1.2s1.2-0.5,1.2-1.2S31.5-16.6,30.9-16.6L30.9-16.6z"/>
							<path class="st1" d="M38.6-16.6c-0.7,0-1.2,0.5-1.2,1.2s0.5,1.2,1.2,1.2s1.2-0.5,1.2-1.2S39.2-16.6,38.6-16.6L38.6-16.6z"/>
							<path class="st1" d="M46.3-16.6c-0.7,0-1.2,0.5-1.2,1.2s0.5,1.2,1.2,1.2s1.2-0.5,1.2-1.2S46.9-16.6,46.3-16.6L46.3-16.6z"/>
							<path class="st1" d="M53.9-16.6c-0.7,0-1.2,0.5-1.2,1.2s0.5,1.2,1.2,1.2s1.2-0.5,1.2-1.2C55.1-16.1,54.6-16.6,53.9-16.6
								L53.9-16.6z"/>
							<path class="st1" d="M61.6-16.6c-0.7,0-1.2,0.5-1.2,1.2s0.5,1.2,1.2,1.2s1.2-0.5,1.2-1.2S62.3-16.6,61.6-16.6L61.6-16.6z"/>
							<path class="st1" d="M69.3-16.6c-0.7,0-1.2,0.5-1.2,1.2s0.5,1.2,1.2,1.2s1.2-0.5,1.2-1.2S70-16.6,69.3-16.6L69.3-16.6z"/>
							<path class="st1" d="M77-16.6c-0.7,0-1.2,0.5-1.2,1.2s0.5,1.2,1.2,1.2s1.2-0.5,1.2-1.2S77.7-16.6,77-16.6L77-16.6z"/>
							<path class="st1" d="M84.7-16.6c-0.7,0-1.2,0.5-1.2,1.2s0.5,1.2,1.2,1.2s1.2-0.5,1.2-1.2C85.9-16.1,85.4-16.6,84.7-16.6
								L84.7-16.6z"/>
							<path class="st1" d="M92.4-16.6c-0.7,0-1.2,0.5-1.2,1.2s0.5,1.2,1.2,1.2s1.2-0.5,1.2-1.2S93.1-16.6,92.4-16.6L92.4-16.6z"/>
							<path class="st1" d="M1.3-15.4L1.3-15.4c0-0.7-0.5-1.2-1.2-1.2v2.4C0.8-14.2,1.3-14.7,1.3-15.4L1.3-15.4z"/>
							<path class="st1" d="M98.9-15.4L98.9-15.4c0-0.7,0.5-1.2,1.2-1.2l0,0C99.4-16.6,98.9-16.1,98.9-15.4L98.9-15.4z"/>
							<path class="st1" d="M7.8-8.9c-0.7,0-1.2,0.5-1.2,1.2s0.5,1.2,1.2,1.2S9-7,9-7.7C9-8.4,8.5-8.9,7.8-8.9L7.8-8.9z"/>
							<path class="st1" d="M15.5-8.9c-0.7,0-1.2,0.5-1.2,1.2s0.5,1.2,1.2,1.2c0.7,0,1.2-0.5,1.2-1.2S16.2-8.9,15.5-8.9L15.5-8.9z"
								/>
							<path class="st1" d="M23.2-8.9c-0.7,0-1.2,0.5-1.2,1.2s0.5,1.2,1.2,1.2s1.2-0.5,1.2-1.2C24.4-8.4,23.9-8.9,23.2-8.9L23.2-8.9
								z"/>
							<path class="st1" d="M30.9-8.9c-0.7,0-1.2,0.5-1.2,1.2s0.5,1.2,1.2,1.2s1.2-0.5,1.2-1.2S31.5-8.9,30.9-8.9L30.9-8.9z"/>
							<path class="st1" d="M38.6-8.9c-0.7,0-1.2,0.5-1.2,1.2s0.5,1.2,1.2,1.2s1.2-0.5,1.2-1.2S39.2-8.9,38.6-8.9L38.6-8.9z"/>
							<path class="st1" d="M46.3-8.9c-0.7,0-1.2,0.5-1.2,1.2s0.5,1.2,1.2,1.2s1.2-0.5,1.2-1.2S46.9-8.9,46.3-8.9L46.3-8.9z"/>
							<path class="st1" d="M53.9-8.9c-0.7,0-1.2,0.5-1.2,1.2s0.5,1.2,1.2,1.2s1.2-0.5,1.2-1.2C55.2-8.4,54.6-8.9,53.9-8.9L53.9-8.9
								z"/>
							<path class="st1" d="M61.6-8.9c-0.7,0-1.2,0.5-1.2,1.2s0.5,1.2,1.2,1.2s1.2-0.5,1.2-1.2C62.9-8.4,62.3-8.9,61.6-8.9L61.6-8.9
								z"/>
							<path class="st1" d="M69.3-8.9c-0.7,0-1.2,0.5-1.2,1.2s0.5,1.2,1.2,1.2s1.2-0.5,1.2-1.2C70.6-8.4,70-8.9,69.3-8.9L69.3-8.9z"
								/>
							<path class="st1" d="M77-8.9c-0.7,0-1.2,0.5-1.2,1.2s0.5,1.2,1.2,1.2s1.2-0.5,1.2-1.2S77.7-8.9,77-8.9L77-8.9z"/>
							<path class="st1" d="M84.7-8.9c-0.7,0-1.2,0.5-1.2,1.2s0.5,1.2,1.2,1.2s1.2-0.5,1.2-1.2C85.9-8.4,85.4-8.9,84.7-8.9L84.7-8.9
								z"/>
							<path class="st1" d="M92.4-8.9c-0.7,0-1.2,0.5-1.2,1.2s0.5,1.2,1.2,1.2s1.2-0.5,1.2-1.2S93.1-8.9,92.4-8.9L92.4-8.9z"/>
							<path class="st1" d="M1.3-7.7L1.3-7.7c0-0.7-0.5-1.2-1.2-1.2v2.4C0.8-6.5,1.3-7,1.3-7.7L1.3-7.7z"/>
							<path class="st1" d="M98.9-7.7L98.9-7.7c0-0.7,0.5-1.2,1.2-1.2l0,0C99.4-8.9,98.9-8.4,98.9-7.7L98.9-7.7z"/>
							<path class="st1" d="M98.9-92.3L98.9-92.3c0,0.3,0.1,0.6,0.4,0.9c0.2,0.2,0.5,0.4,0.9,0.4v-2.4C99.4-93.5,98.9-93,98.9-92.3
								L98.9-92.3z"/>
							<path class="st1" d="M98.9-84.6L98.9-84.6c0,0.3,0.1,0.6,0.4,0.9c0.2,0.2,0.5,0.4,0.9,0.4v-2.4c-0.3,0-0.6,0.1-0.9,0.4
								C99-85.3,98.9-85,98.9-84.6L98.9-84.6z"/>
							<path class="st1" d="M98.9-76.9L98.9-76.9c0,0.7,0.5,1.2,1.2,1.2v-2.4C99.4-78.1,98.9-77.6,98.9-76.9L98.9-76.9z"/>
							<path class="st1" d="M98.9-69.2L98.9-69.2c0,0.7,0.5,1.2,1.2,1.2v-2.4C99.4-70.5,98.9-69.9,98.9-69.2L98.9-69.2z"/>
							<path class="st1" d="M98.9-61.5L98.9-61.5c0,0.7,0.5,1.2,1.2,1.2v-2.4C99.4-62.8,98.9-62.2,98.9-61.5L98.9-61.5z"/>
							<path class="st1" d="M98.9-53.8L98.9-53.8c0,0.7,0.5,1.2,1.2,1.2V-55C99.4-55.1,98.9-54.5,98.9-53.8L98.9-53.8z"/>
							<path class="st1" d="M98.9-46.2L98.9-46.2c0,0.7,0.5,1.2,1.2,1.2v-2.4C99.4-47.4,98.9-46.8,98.9-46.2L98.9-46.2z"/>
							<path class="st1" d="M98.9-38.5L98.9-38.5c0,0.7,0.5,1.2,1.2,1.2v-2.4C99.4-39.7,98.9-39.1,98.9-38.5L98.9-38.5z"/>
							<path class="st1" d="M98.9-30.8L98.9-30.8c0,0.7,0.5,1.2,1.2,1.2V-32C99.4-32,98.9-31.4,98.9-30.8L98.9-30.8z"/>
							<path class="st1" d="M98.9-23.1L98.9-23.1c0,0.7,0.5,1.2,1.2,1.2v-2.4C99.4-24.3,98.9-23.8,98.9-23.1L98.9-23.1z"/>
							<path class="st1" d="M98.9-15.4L98.9-15.4c0,0.7,0.5,1.2,1.2,1.2v-2.4C99.4-16.6,98.9-16.1,98.9-15.4L98.9-15.4z"/>
							<path class="st1" d="M98.9-7.7L98.9-7.7c0,0.7,0.5,1.2,1.2,1.2v-2.4C99.4-8.9,98.9-8.4,98.9-7.7L98.9-7.7z"/>
							<path class="st1" d="M100.1-1.2c-0.7,0-1.2,0.5-1.2,1.2h1.2V-1.2L100.1-1.2z"/>
						</g>
					</g>
				</g>
			</g>
		</g>
	</g>
</pattern>
<pattern  y="800.8" width="100" height="100" patternUnits="userSpaceOnUse" id="SVGID_1_3" viewBox="0.1 -100 100 100" style="overflow:visible;">
	<g>
		<rect x="0.1" y="-100" class="st0" width="100" height="100"/>
		<g>
			<rect x="0.1" y="-100" class="st0" width="100" height="100"/>
			<g>
				<rect x="0.1" y="-100" class="st0" width="100" height="100"/>
				<g>
					<rect x="0.1" y="-100" class="st0" width="100" height="100"/>
					<g>
						<rect x="0.1" y="-100" class="st0" width="100" height="100"/>
						<g>
							<rect x="0.1" y="-100" class="st0" width="100" height="100"/>
							<path class="st2" d="M7.8-1.2C7.1-1.2,6.6-0.7,6.6,0H9C9-0.7,8.5-1.2,7.8-1.2L7.8-1.2z"/>
							<path class="st2" d="M15.5-1.2c-0.7,0-1.2,0.5-1.2,1.2h2.4C16.7-0.7,16.2-1.2,15.5-1.2L15.5-1.2z"/>
							<path class="st2" d="M23.2-1.2C22.5-1.2,22-0.7,22,0h2.4C24.4-0.7,23.9-1.2,23.2-1.2L23.2-1.2z"/>
							<path class="st2" d="M30.9-1.2c-0.7,0-1.2,0.5-1.2,1.2h2.4C32.1-0.7,31.5-1.2,30.9-1.2L30.9-1.2z"/>
							<path class="st2" d="M38.6-1.2c-0.7,0-1.2,0.5-1.2,1.2h2.4C39.8-0.7,39.2-1.2,38.6-1.2L38.6-1.2z"/>
							<path class="st2" d="M46.3-1.2c-0.7,0-1.2,0.5-1.2,1.2h2.4C47.5-0.7,46.9-1.2,46.3-1.2L46.3-1.2z"/>
							<path class="st2" d="M53.9-1.2c-0.7,0-1.2,0.5-1.2,1.2h2.4C55.2-0.7,54.6-1.2,53.9-1.2L53.9-1.2z"/>
							<path class="st2" d="M61.6-1.2c-0.7,0-1.2,0.5-1.2,1.2h2.4C62.9-0.7,62.3-1.2,61.6-1.2L61.6-1.2z"/>
							<path class="st2" d="M69.3-1.2c-0.7,0-1.2,0.5-1.2,1.2h2.4C70.6-0.7,70-1.2,69.3-1.2L69.3-1.2z"/>
							<path class="st2" d="M77-1.2c-0.7,0-1.2,0.5-1.2,1.2h2.4C78.2-0.7,77.7-1.2,77-1.2L77-1.2z"/>
							<path class="st2" d="M84.7-1.2c-0.7,0-1.2,0.5-1.2,1.2h2.4C85.9-0.7,85.4-1.2,84.7-1.2L84.7-1.2z"/>
							<path class="st2" d="M92.4-1.2c-0.7,0-1.2,0.5-1.2,1.2h2.4C93.6-0.7,93.1-1.2,92.4-1.2L92.4-1.2z"/>
							<path class="st2" d="M1.3-92.3L1.3-92.3c0,0.3-0.1,0.6-0.4,0.9C1.2-91.7,1.3-92,1.3-92.3L1.3-92.3z"/>
							<path class="st2" d="M1.3-84.6L1.3-84.6c0,0.3-0.1,0.6-0.4,0.9C1.2-84,1.3-84.3,1.3-84.6L1.3-84.6z"/>
							<path class="st2" d="M1.3-76.9L1.3-76.9c0,0.7-0.5,1.2-1.2,1.2l0,0C0.8-75.7,1.3-76.2,1.3-76.9L1.3-76.9z"/>
							<path class="st2" d="M1.3-69.2L1.3-69.2c0,0.6-0.5,1.2-1.2,1.2l0,0C0.8-68,1.3-68.6,1.3-69.2L1.3-69.2z"/>
							<path class="st2" d="M1.3-61.5L1.3-61.5c0,0.7-0.5,1.2-1.2,1.2l0,0C0.8-60.3,1.3-60.9,1.3-61.5L1.3-61.5z"/>
							<path class="st2" d="M1.3-53.8L1.3-53.8c0,0.7-0.5,1.2-1.2,1.2l0,0C0.8-52.6,1.3-53.2,1.3-53.8L1.3-53.8z"/>
							<path class="st2" d="M1.3-46.2L1.3-46.2c0,0.7-0.5,1.2-1.2,1.2l0,0C0.8-44.9,1.3-45.5,1.3-46.2L1.3-46.2z"/>
							<path class="st2" d="M1.3-38.5L1.3-38.5c0,0.7-0.5,1.2-1.2,1.2l0,0C0.8-37.2,1.3-37.8,1.3-38.5L1.3-38.5z"/>
							<path class="st2" d="M1.3-30.8L1.3-30.8c0,0.7-0.5,1.2-1.2,1.2l0,0C0.8-29.5,1.3-30.1,1.3-30.8L1.3-30.8z"/>
							<path class="st2" d="M1.3-23.1L1.3-23.1c0,0.7-0.5,1.2-1.2,1.2l0,0C0.8-21.9,1.3-22.4,1.3-23.1L1.3-23.1z"/>
							<path class="st2" d="M1.3-15.4L1.3-15.4c0,0.7-0.5,1.2-1.2,1.2l0,0C0.8-14.2,1.3-14.7,1.3-15.4L1.3-15.4z"/>
							<path class="st2" d="M1.3-7.7L1.3-7.7c0,0.7-0.5,1.2-1.2,1.2l0,0C0.8-6.5,1.3-7,1.3-7.7L1.3-7.7z"/>
							<path class="st2" d="M0.1-1.2V0h1.2C1.3-0.7,0.8-1.2,0.1-1.2L0.1-1.2z"/>
							<path class="st2" d="M7.8-98.8c0.7,0,1.2-0.5,1.2-1.2H6.6C6.6-99.3,7.1-98.8,7.8-98.8L7.8-98.8z"/>
							<path class="st2" d="M15.5-98.8c0.7,0,1.2-0.5,1.2-1.2h-2.4C14.3-99.3,14.8-98.8,15.5-98.8L15.5-98.8z"/>
							<path class="st2" d="M23.2-98.8c0.7,0,1.2-0.5,1.2-1.2H22C22-99.3,22.5-98.8,23.2-98.8L23.2-98.8z"/>
							<path class="st2" d="M30.9-98.8c0.6,0,1.2-0.5,1.2-1.2h-2.4C29.6-99.3,30.2-98.8,30.9-98.8L30.9-98.8z"/>
							<path class="st2" d="M38.6-98.8c0.7,0,1.2-0.5,1.2-1.2h-2.4C37.3-99.3,37.9-98.8,38.6-98.8L38.6-98.8z"/>
							<path class="st2" d="M46.3-98.8c0.7,0,1.2-0.5,1.2-1.2h-2.4C45-99.3,45.6-98.8,46.3-98.8L46.3-98.8z"/>
							<path class="st2" d="M53.9-98.8c0.7,0,1.2-0.5,1.2-1.2h-2.4C52.7-99.3,53.3-98.8,53.9-98.8L53.9-98.8z"/>
							<path class="st2" d="M61.6-98.8c0.7,0,1.2-0.5,1.2-1.2h-2.4C60.4-99.3,61-98.8,61.6-98.8L61.6-98.8z"/>
							<path class="st2" d="M69.3-98.8c0.7,0,1.2-0.5,1.2-1.2h-2.4C68.1-99.3,68.7-98.8,69.3-98.8L69.3-98.8z"/>
							<path class="st2" d="M77-98.8c0.7,0,1.2-0.5,1.2-1.2h-2.4C75.8-99.3,76.3-98.8,77-98.8L77-98.8z"/>
							<path class="st2" d="M84.7-98.8c0.7,0,1.2-0.5,1.2-1.2h-2.4C83.5-99.3,84-98.8,84.7-98.8L84.7-98.8z"/>
							<path class="st2" d="M92.4-98.8c0.7,0,1.2-0.5,1.2-1.2h-2.4C91.2-99.3,91.7-98.8,92.4-98.8L92.4-98.8z"/>
							<path class="st2" d="M1.3-100H0.1v1.2C0.8-98.8,1.3-99.3,1.3-100L1.3-100z"/>
							<path class="st2" d="M100.1-98.8v-1.2h-1.2C98.9-99.3,99.4-98.8,100.1-98.8L100.1-98.8z"/>
							<path class="st2" d="M7.8-93.5c-0.7,0-1.2,0.5-1.2,1.2c0,0.7,0.5,1.2,1.2,1.2S9-91.6,9-92.3C9-93,8.5-93.5,7.8-93.5L7.8-93.5
								z"/>
							<path class="st2" d="M15.5-93.5c-0.7,0-1.2,0.5-1.2,1.2c0,0.7,0.5,1.2,1.2,1.2c0.7,0,1.2-0.5,1.2-1.2
								C16.7-93,16.2-93.5,15.5-93.5L15.5-93.5z"/>
							<path class="st2" d="M23.2-93.5c-0.7,0-1.2,0.5-1.2,1.2c0,0.7,0.5,1.2,1.2,1.2s1.2-0.5,1.2-1.2C24.4-93,23.9-93.5,23.2-93.5
								L23.2-93.5z"/>
							<path class="st2" d="M30.9-93.5c-0.7,0-1.2,0.5-1.2,1.2c0,0.7,0.5,1.2,1.2,1.2s1.2-0.5,1.2-1.2C32.1-93,31.5-93.5,30.9-93.5
								L30.9-93.5z"/>
							<path class="st2" d="M38.6-93.5c-0.7,0-1.2,0.5-1.2,1.2c0,0.7,0.5,1.2,1.2,1.2s1.2-0.5,1.2-1.2C39.8-93,39.2-93.5,38.6-93.5
								L38.6-93.5z"/>
							<path class="st2" d="M46.3-93.5c-0.7,0-1.2,0.5-1.2,1.2c0,0.7,0.5,1.2,1.2,1.2s1.2-0.5,1.2-1.2C47.5-93,46.9-93.5,46.3-93.5
								L46.3-93.5z"/>
							<path class="st2" d="M53.9-93.5c-0.7,0-1.2,0.5-1.2,1.2c0,0.7,0.5,1.2,1.2,1.2s1.2-0.5,1.2-1.2C55.2-93,54.6-93.5,53.9-93.5
								L53.9-93.5z"/>
							<path class="st2" d="M61.6-93.5c-0.7,0-1.2,0.5-1.2,1.2c0,0.7,0.5,1.2,1.2,1.2s1.2-0.5,1.2-1.2C62.9-93,62.3-93.5,61.6-93.5
								L61.6-93.5z"/>
							<path class="st2" d="M69.3-93.5c-0.6,0-1.2,0.5-1.2,1.2c0,0.7,0.5,1.2,1.2,1.2s1.2-0.5,1.2-1.2C70.6-93,70-93.5,69.3-93.5
								L69.3-93.5z"/>
							<path class="st2" d="M77-93.5c-0.7,0-1.2,0.5-1.2,1.2c0,0.7,0.5,1.2,1.2,1.2s1.2-0.5,1.2-1.2C78.2-93,77.7-93.5,77-93.5
								L77-93.5z"/>
							<path class="st2" d="M84.7-93.5c-0.7,0-1.2,0.5-1.2,1.2c0,0.7,0.5,1.2,1.2,1.2s1.2-0.5,1.2-1.2C85.9-93,85.4-93.5,84.7-93.5
								L84.7-93.5z"/>
							<path class="st2" d="M92.4-93.5c-0.7,0-1.2,0.5-1.2,1.2c0,0.7,0.5,1.2,1.2,1.2s1.2-0.5,1.2-1.2C93.6-93,93.1-93.5,92.4-93.5
								L92.4-93.5z"/>
							<path class="st2" d="M1.3-92.3L1.3-92.3c0-0.7-0.5-1.2-1.2-1.2v2.4c0.3,0,0.6-0.1,0.9-0.4C1.2-91.7,1.3-92,1.3-92.3L1.3-92.3
								z"/>
							<path class="st2" d="M98.9-92.3L98.9-92.3c0-0.7,0.5-1.2,1.2-1.2l0,0C99.4-93.5,98.9-93,98.9-92.3L98.9-92.3z"/>
							<path class="st2" d="M7.8-85.8c-0.7,0-1.2,0.5-1.2,1.2c0,0.7,0.5,1.2,1.2,1.2S9-83.9,9-84.6C9-85.3,8.5-85.8,7.8-85.8
								L7.8-85.8z"/>
							<path class="st2" d="M15.5-85.8c-0.7,0-1.2,0.5-1.2,1.2c0,0.7,0.5,1.2,1.2,1.2c0.7,0,1.2-0.5,1.2-1.2
								C16.7-85.3,16.2-85.8,15.5-85.8L15.5-85.8z"/>
							<path class="st2" d="M23.2-85.8c-0.7,0-1.2,0.5-1.2,1.2c0,0.7,0.5,1.2,1.2,1.2s1.2-0.5,1.2-1.2
								C24.4-85.3,23.9-85.8,23.2-85.8L23.2-85.8z"/>
							<path class="st2" d="M30.9-85.8c-0.7,0-1.2,0.5-1.2,1.2c0,0.7,0.5,1.2,1.2,1.2s1.2-0.5,1.2-1.2
								C32.1-85.3,31.5-85.8,30.9-85.8L30.9-85.8z"/>
							<path class="st2" d="M38.6-85.8c-0.7,0-1.2,0.5-1.2,1.2c0,0.7,0.5,1.2,1.2,1.2s1.2-0.5,1.2-1.2
								C39.8-85.3,39.2-85.8,38.6-85.8L38.6-85.8z"/>
							<path class="st2" d="M46.3-85.8c-0.7,0-1.2,0.5-1.2,1.2c0,0.7,0.5,1.2,1.2,1.2s1.2-0.5,1.2-1.2
								C47.5-85.3,46.9-85.8,46.3-85.8L46.3-85.8z"/>
							<path class="st2" d="M53.9-85.8c-0.7,0-1.2,0.5-1.2,1.2c0,0.7,0.5,1.2,1.2,1.2s1.2-0.5,1.2-1.2
								C55.2-85.3,54.6-85.8,53.9-85.8L53.9-85.8z"/>
							<path class="st2" d="M61.6-85.8c-0.7,0-1.2,0.5-1.2,1.2c0,0.7,0.5,1.2,1.2,1.2s1.2-0.5,1.2-1.2
								C62.9-85.3,62.3-85.8,61.6-85.8L61.6-85.8z"/>
							<path class="st2" d="M69.3-85.8c-0.7,0-1.2,0.5-1.2,1.2c0,0.7,0.5,1.2,1.2,1.2s1.2-0.5,1.2-1.2C70.6-85.3,70-85.8,69.3-85.8
								L69.3-85.8z"/>
							<path class="st2" d="M77-85.8c-0.7,0-1.2,0.5-1.2,1.2c0,0.7,0.5,1.2,1.2,1.2s1.2-0.5,1.2-1.2C78.2-85.3,77.7-85.8,77-85.8
								L77-85.8z"/>
							<path class="st2" d="M84.7-85.8c-0.7,0-1.2,0.5-1.2,1.2c0,0.7,0.5,1.2,1.2,1.2s1.2-0.5,1.2-1.2
								C85.9-85.3,85.4-85.8,84.7-85.8L84.7-85.8z"/>
							<path class="st2" d="M92.4-85.8c-0.7,0-1.2,0.5-1.2,1.2c0,0.7,0.5,1.2,1.2,1.2s1.2-0.5,1.2-1.2
								C93.6-85.3,93.1-85.8,92.4-85.8L92.4-85.8z"/>
							<path class="st2" d="M1.3-84.6L1.3-84.6c0-0.3-0.1-0.6-0.4-0.9c-0.2-0.2-0.5-0.4-0.9-0.4v2.4c0.3,0,0.6-0.1,0.9-0.4
								C1.2-84,1.3-84.3,1.3-84.6L1.3-84.6z"/>
							<path class="st2" d="M98.9-84.6L98.9-84.6c0-0.3,0.1-0.6,0.4-0.9C99-85.3,98.9-85,98.9-84.6L98.9-84.6z"/>
							<path class="st2" d="M7.8-78.1c-0.7,0-1.2,0.5-1.2,1.2c0,0.7,0.5,1.2,1.2,1.2S9-76.2,9-76.9C9-77.6,8.5-78.1,7.8-78.1
								L7.8-78.1z"/>
							<path class="st2" d="M15.5-78.1c-0.7,0-1.2,0.5-1.2,1.2c0,0.7,0.5,1.2,1.2,1.2c0.7,0,1.2-0.5,1.2-1.2
								C16.7-77.6,16.2-78.1,15.5-78.1L15.5-78.1z"/>
							<path class="st2" d="M23.2-78.1c-0.7,0-1.2,0.5-1.2,1.2c0,0.7,0.5,1.2,1.2,1.2s1.2-0.5,1.2-1.2
								C24.4-77.6,23.9-78.1,23.2-78.1L23.2-78.1z"/>
							<path class="st2" d="M30.9-78.1c-0.7,0-1.2,0.5-1.2,1.2c0,0.7,0.5,1.2,1.2,1.2s1.2-0.5,1.2-1.2
								C32.1-77.6,31.5-78.1,30.9-78.1L30.9-78.1z"/>
							<path class="st2" d="M38.6-78.1c-0.7,0-1.2,0.5-1.2,1.2c0,0.7,0.5,1.2,1.2,1.2s1.2-0.5,1.2-1.2
								C39.8-77.6,39.2-78.1,38.6-78.1L38.6-78.1z"/>
							<path class="st2" d="M46.3-78.1c-0.7,0-1.2,0.5-1.2,1.2c0,0.7,0.5,1.2,1.2,1.2s1.2-0.5,1.2-1.2
								C47.5-77.6,46.9-78.1,46.3-78.1L46.3-78.1z"/>
							<path class="st2" d="M53.9-78.1c-0.7,0-1.2,0.5-1.2,1.2c0,0.7,0.5,1.2,1.2,1.2s1.2-0.5,1.2-1.2
								C55.2-77.6,54.6-78.1,53.9-78.1L53.9-78.1z"/>
							<path class="st2" d="M61.6-78.1c-0.7,0-1.2,0.5-1.2,1.2c0,0.7,0.5,1.2,1.2,1.2s1.2-0.5,1.2-1.2
								C62.9-77.6,62.3-78.1,61.6-78.1L61.6-78.1z"/>
							<path class="st2" d="M69.3-78.1c-0.7,0-1.2,0.5-1.2,1.2c0,0.7,0.5,1.2,1.2,1.2s1.2-0.5,1.2-1.2C70.6-77.6,70-78.1,69.3-78.1
								L69.3-78.1z"/>
							<path class="st2" d="M77-78.1c-0.7,0-1.2,0.5-1.2,1.2c0,0.7,0.5,1.2,1.2,1.2s1.2-0.5,1.2-1.2C78.2-77.6,77.7-78.1,77-78.1
								L77-78.1z"/>
							<path class="st2" d="M84.7-78.1c-0.7,0-1.2,0.5-1.2,1.2c0,0.7,0.5,1.2,1.2,1.2s1.2-0.5,1.2-1.2
								C85.9-77.6,85.4-78.1,84.7-78.1L84.7-78.1z"/>
							<path class="st2" d="M92.4-78.1c-0.7,0-1.2,0.5-1.2,1.2c0,0.7,0.5,1.2,1.2,1.2s1.2-0.5,1.2-1.2
								C93.6-77.6,93.1-78.1,92.4-78.1L92.4-78.1z"/>
							<path class="st2" d="M1.3-76.9L1.3-76.9c0-0.7-0.5-1.2-1.2-1.2v2.4C0.8-75.7,1.3-76.2,1.3-76.9L1.3-76.9z"/>
							<path class="st2" d="M98.9-76.9L98.9-76.9c0-0.7,0.5-1.2,1.2-1.2l0,0C99.4-78.1,98.9-77.6,98.9-76.9L98.9-76.9z"/>
							<path class="st2" d="M7.8-70.5c-0.7,0-1.2,0.5-1.2,1.2c0,0.7,0.5,1.3,1.2,1.3S9-68.5,9-69.2C9-69.9,8.5-70.5,7.8-70.5
								L7.8-70.5z"/>
							<path class="st2" d="M15.5-70.5c-0.7,0-1.2,0.5-1.2,1.2c0,0.7,0.5,1.2,1.2,1.2c0.7,0,1.2-0.5,1.2-1.2
								C16.7-69.9,16.2-70.5,15.5-70.5L15.5-70.5z"/>
							<path class="st2" d="M23.2-70.5c-0.7,0-1.2,0.5-1.2,1.2c0,0.7,0.5,1.2,1.2,1.2s1.2-0.5,1.2-1.2
								C24.4-69.9,23.9-70.5,23.2-70.5L23.2-70.5z"/>
							<path class="st2" d="M30.9-70.5c-0.7,0-1.2,0.5-1.2,1.2c0,0.7,0.5,1.2,1.2,1.2s1.2-0.5,1.2-1.2
								C32.1-69.9,31.5-70.5,30.9-70.5L30.9-70.5z"/>
							<path class="st2" d="M38.6-70.5c-0.7,0-1.2,0.5-1.2,1.2c0,0.7,0.5,1.2,1.2,1.2s1.2-0.5,1.2-1.2
								C39.8-69.9,39.2-70.5,38.6-70.5L38.6-70.5z"/>
							<path class="st2" d="M46.3-70.5c-0.7,0-1.2,0.5-1.2,1.2c0,0.7,0.5,1.2,1.2,1.2s1.2-0.5,1.2-1.2
								C47.5-69.9,46.9-70.5,46.3-70.5L46.3-70.5z"/>
							<path class="st2" d="M53.9-70.5c-0.7,0-1.2,0.5-1.2,1.2c0,0.7,0.5,1.2,1.2,1.2s1.2-0.5,1.2-1.2
								C55.2-69.9,54.6-70.5,53.9-70.5L53.9-70.5z"/>
							<path class="st2" d="M61.6-70.5c-0.7,0-1.2,0.5-1.2,1.2c0,0.7,0.5,1.2,1.2,1.2s1.2-0.5,1.2-1.2
								C62.9-69.9,62.3-70.5,61.6-70.5L61.6-70.5z"/>
							<path class="st2" d="M69.3-70.5c-0.7,0-1.2,0.5-1.2,1.2c0,0.7,0.5,1.2,1.2,1.2s1.2-0.5,1.2-1.2C70.6-69.9,70-70.5,69.3-70.5
								L69.3-70.5z"/>
							<path class="st2" d="M77-70.5c-0.7,0-1.2,0.5-1.2,1.2c0,0.7,0.5,1.2,1.2,1.2s1.2-0.5,1.2-1.2C78.2-69.9,77.7-70.5,77-70.5
								L77-70.5z"/>
							<path class="st2" d="M84.7-70.5c-0.7,0-1.2,0.5-1.2,1.2c0,0.7,0.5,1.2,1.2,1.2s1.2-0.5,1.2-1.2
								C85.9-69.9,85.4-70.5,84.7-70.5L84.7-70.5z"/>
							<path class="st2" d="M92.4-70.5c-0.7,0-1.2,0.5-1.2,1.2c0,0.7,0.5,1.2,1.2,1.2s1.2-0.5,1.2-1.2
								C93.6-69.9,93.1-70.5,92.4-70.5L92.4-70.5z"/>
							<path class="st2" d="M1.3-69.2L1.3-69.2c0-0.7-0.5-1.2-1.2-1.2v2.4C0.8-68,1.3-68.6,1.3-69.2L1.3-69.2z"/>
							<path class="st2" d="M98.9-69.2L98.9-69.2c0-0.7,0.5-1.2,1.2-1.2l0,0C99.4-70.5,98.9-69.9,98.9-69.2L98.9-69.2z"/>
							<path class="st2" d="M7.8-62.8c-0.7,0-1.2,0.5-1.2,1.2s0.5,1.2,1.2,1.2S9-60.9,9-61.6C9-62.2,8.5-62.8,7.8-62.8L7.8-62.8z"/>
							<path class="st2" d="M15.5-62.8c-0.7,0-1.2,0.5-1.2,1.2s0.5,1.2,1.2,1.2c0.7,0,1.2-0.5,1.2-1.2
								C16.7-62.2,16.2-62.8,15.5-62.8L15.5-62.8z"/>
							<path class="st2" d="M23.2-62.8c-0.7,0-1.2,0.5-1.2,1.2s0.5,1.2,1.2,1.2s1.2-0.5,1.2-1.2C24.4-62.2,23.9-62.8,23.2-62.8
								L23.2-62.8z"/>
							<path class="st2" d="M30.9-62.8c-0.7,0-1.2,0.5-1.2,1.2s0.5,1.2,1.2,1.2s1.2-0.5,1.2-1.2C32.1-62.2,31.5-62.8,30.9-62.8
								L30.9-62.8z"/>
							<path class="st2" d="M38.6-62.8c-0.7,0-1.2,0.5-1.2,1.2s0.5,1.2,1.2,1.2s1.2-0.5,1.2-1.2C39.8-62.2,39.2-62.8,38.6-62.8
								L38.6-62.8z"/>
							<path class="st2" d="M46.3-62.8c-0.7,0-1.2,0.5-1.2,1.2s0.5,1.2,1.2,1.2s1.2-0.5,1.2-1.2C47.5-62.2,46.9-62.8,46.3-62.8
								L46.3-62.8z"/>
							<path class="st2" d="M53.9-62.8c-0.7,0-1.2,0.5-1.2,1.2s0.5,1.2,1.2,1.2s1.2-0.5,1.2-1.2C55.2-62.2,54.6-62.8,53.9-62.8
								L53.9-62.8z"/>
							<path class="st2" d="M61.6-62.8c-0.7,0-1.2,0.5-1.2,1.2s0.5,1.2,1.2,1.2s1.2-0.5,1.2-1.2C62.9-62.2,62.3-62.8,61.6-62.8
								L61.6-62.8z"/>
							<path class="st2" d="M69.3-62.8c-0.7,0-1.2,0.5-1.2,1.2s0.5,1.2,1.2,1.2s1.2-0.5,1.2-1.2C70.6-62.2,70-62.8,69.3-62.8
								L69.3-62.8z"/>
							<path class="st2" d="M77-62.8c-0.7,0-1.2,0.5-1.2,1.2s0.5,1.2,1.2,1.2s1.2-0.5,1.2-1.2C78.2-62.2,77.7-62.8,77-62.8L77-62.8z
								"/>
							<path class="st2" d="M84.7-62.8c-0.7,0-1.2,0.5-1.2,1.2s0.5,1.2,1.2,1.2s1.2-0.5,1.2-1.2C85.9-62.2,85.4-62.8,84.7-62.8
								L84.7-62.8z"/>
							<path class="st2" d="M92.4-62.8c-0.7,0-1.2,0.5-1.2,1.2s0.5,1.2,1.2,1.2s1.2-0.5,1.2-1.2C93.6-62.2,93.1-62.8,92.4-62.8
								L92.4-62.8z"/>
							<path class="st2" d="M1.3-61.5L1.3-61.5c0-0.7-0.5-1.2-1.2-1.2v2.4C0.8-60.3,1.3-60.9,1.3-61.5L1.3-61.5z"/>
							<path class="st2" d="M98.9-61.5L98.9-61.5c0-0.7,0.5-1.2,1.2-1.2l0,0C99.4-62.8,98.9-62.2,98.9-61.5L98.9-61.5z"/>
							<path class="st2" d="M7.8-55.1c-0.7,0-1.2,0.5-1.2,1.2s0.5,1.2,1.2,1.2S9-53.2,9-53.9C9-54.5,8.5-55.1,7.8-55.1L7.8-55.1z"/>
							<path class="st2" d="M15.5-55.1c-0.7,0-1.2,0.5-1.2,1.2s0.5,1.2,1.2,1.2c0.7,0,1.2-0.5,1.2-1.2
								C16.7-54.5,16.2-55.1,15.5-55.1L15.5-55.1z"/>
							<path class="st2" d="M23.2-55.1c-0.7,0-1.2,0.5-1.2,1.2s0.5,1.2,1.2,1.2s1.2-0.5,1.2-1.2C24.4-54.5,23.9-55.1,23.2-55.1
								L23.2-55.1z"/>
							<path class="st2" d="M30.9-55.1c-0.7,0-1.2,0.5-1.2,1.2s0.5,1.2,1.2,1.2s1.2-0.5,1.2-1.2C32.1-54.5,31.5-55.1,30.9-55.1
								L30.9-55.1z"/>
							<path class="st2" d="M38.6-55.1c-0.7,0-1.2,0.5-1.2,1.2s0.5,1.2,1.2,1.2s1.2-0.5,1.2-1.2C39.8-54.5,39.2-55.1,38.6-55.1
								L38.6-55.1z"/>
							<path class="st2" d="M46.3-55.1c-0.7,0-1.2,0.5-1.2,1.2s0.5,1.2,1.2,1.2s1.2-0.5,1.2-1.2C47.5-54.5,46.9-55.1,46.3-55.1
								L46.3-55.1z"/>
							<path class="st2" d="M53.9-55.1c-0.7,0-1.2,0.5-1.2,1.2s0.5,1.2,1.2,1.2s1.2-0.5,1.2-1.2C55.2-54.5,54.6-55.1,53.9-55.1
								L53.9-55.1z"/>
							<path class="st2" d="M61.6-55.1c-0.7,0-1.2,0.5-1.2,1.2s0.5,1.2,1.2,1.2s1.2-0.5,1.2-1.2C62.9-54.5,62.3-55.1,61.6-55.1
								L61.6-55.1z"/>
							<path class="st2" d="M69.3-55.1c-0.7,0-1.2,0.5-1.2,1.2s0.5,1.2,1.2,1.2s1.2-0.5,1.2-1.2C70.6-54.5,70-55.1,69.3-55.1
								L69.3-55.1z"/>
							<path class="st2" d="M77-55.1c-0.7,0-1.2,0.5-1.2,1.2s0.5,1.2,1.2,1.2s1.2-0.5,1.2-1.2C78.2-54.5,77.7-55.1,77-55.1L77-55.1z
								"/>
							<path class="st2" d="M84.7-55.1c-0.7,0-1.2,0.5-1.2,1.2s0.5,1.2,1.2,1.2s1.2-0.5,1.2-1.2C85.9-54.5,85.4-55.1,84.7-55.1
								L84.7-55.1z"/>
							<path class="st2" d="M92.4-55.1c-0.7,0-1.2,0.5-1.2,1.2s0.5,1.2,1.2,1.2s1.2-0.5,1.2-1.2C93.6-54.5,93.1-55.1,92.4-55.1
								L92.4-55.1z"/>
							<path class="st2" d="M1.3-53.8L1.3-53.8c0-0.7-0.5-1.2-1.2-1.2v2.4C0.8-52.6,1.3-53.2,1.3-53.8L1.3-53.8z"/>
							<path class="st2" d="M98.9-53.8L98.9-53.8c0-0.7,0.5-1.2,1.2-1.2l0,0C99.4-55.1,98.9-54.5,98.9-53.8L98.9-53.8z"/>
							<path class="st2" d="M7.8-47.4c-0.7,0-1.2,0.5-1.2,1.2S7.1-45,7.8-45S9-45.5,9-46.2C9-46.8,8.5-47.4,7.8-47.4L7.8-47.4z"/>
							<path class="st2" d="M15.5-47.4c-0.7,0-1.2,0.5-1.2,1.2s0.5,1.2,1.2,1.2c0.7,0,1.2-0.5,1.2-1.2
								C16.7-46.8,16.2-47.4,15.5-47.4L15.5-47.4z"/>
							<path class="st2" d="M23.2-47.4c-0.7,0-1.2,0.5-1.2,1.2s0.5,1.2,1.2,1.2s1.2-0.5,1.2-1.2C24.4-46.8,23.9-47.4,23.2-47.4
								L23.2-47.4z"/>
							<path class="st2" d="M30.9-47.4c-0.7,0-1.2,0.5-1.2,1.2s0.5,1.2,1.2,1.2s1.2-0.5,1.2-1.2C32.1-46.8,31.5-47.4,30.9-47.4
								L30.9-47.4z"/>
							<path class="st2" d="M38.6-47.4c-0.7,0-1.2,0.5-1.2,1.2s0.5,1.2,1.2,1.2s1.2-0.5,1.2-1.2C39.8-46.8,39.2-47.4,38.6-47.4
								L38.6-47.4z"/>
							<path class="st2" d="M46.3-47.4c-0.7,0-1.2,0.5-1.2,1.2s0.5,1.2,1.2,1.2s1.2-0.5,1.2-1.2C47.5-46.8,46.9-47.4,46.3-47.4
								L46.3-47.4z"/>
							<path class="st2" d="M53.9-47.4c-0.7,0-1.2,0.5-1.2,1.2s0.5,1.2,1.2,1.2s1.2-0.5,1.2-1.2C55.2-46.8,54.6-47.4,53.9-47.4
								L53.9-47.4z"/>
							<path class="st2" d="M61.6-47.4c-0.7,0-1.2,0.5-1.2,1.2s0.5,1.2,1.2,1.2s1.2-0.5,1.2-1.2C62.9-46.8,62.3-47.4,61.6-47.4
								L61.6-47.4z"/>
							<path class="st2" d="M69.3-47.4c-0.7,0-1.2,0.5-1.2,1.2s0.5,1.2,1.2,1.2s1.2-0.5,1.2-1.2C70.6-46.8,70-47.4,69.3-47.4
								L69.3-47.4z"/>
							<path class="st2" d="M77-47.4c-0.7,0-1.2,0.5-1.2,1.2S76.3-45,77-45s1.2-0.5,1.2-1.2C78.2-46.8,77.7-47.4,77-47.4L77-47.4z"
								/>
							<path class="st2" d="M84.7-47.4c-0.7,0-1.2,0.5-1.2,1.2S84-45,84.7-45s1.2-0.5,1.2-1.2C85.9-46.8,85.4-47.4,84.7-47.4
								L84.7-47.4z"/>
							<path class="st2" d="M92.4-47.4c-0.7,0-1.2,0.5-1.2,1.2s0.5,1.2,1.2,1.2s1.2-0.5,1.2-1.2C93.6-46.8,93.1-47.4,92.4-47.4
								L92.4-47.4z"/>
							<path class="st2" d="M1.3-46.2L1.3-46.2c0-0.7-0.5-1.2-1.2-1.2v2.4C0.8-44.9,1.3-45.5,1.3-46.2L1.3-46.2z"/>
							<path class="st2" d="M98.9-46.2L98.9-46.2c0-0.7,0.5-1.2,1.2-1.2l0,0C99.4-47.4,98.9-46.8,98.9-46.2L98.9-46.2z"/>
							<path class="st2" d="M7.8-39.7c-0.7,0-1.2,0.5-1.2,1.2s0.5,1.2,1.2,1.2S9-37.8,9-38.5C9-39.1,8.5-39.7,7.8-39.7L7.8-39.7z"/>
							<path class="st2" d="M15.5-39.7c-0.7,0-1.2,0.5-1.2,1.2s0.5,1.2,1.2,1.2c0.7,0,1.2-0.5,1.2-1.2
								C16.7-39.1,16.2-39.7,15.5-39.7L15.5-39.7z"/>
							<path class="st2" d="M23.2-39.7c-0.7,0-1.2,0.5-1.2,1.2s0.5,1.2,1.2,1.2s1.2-0.5,1.2-1.2C24.4-39.1,23.9-39.7,23.2-39.7
								L23.2-39.7z"/>
							<path class="st2" d="M30.9-39.7c-0.7,0-1.2,0.5-1.2,1.2s0.5,1.2,1.2,1.2s1.2-0.5,1.2-1.2C32.1-39.1,31.5-39.7,30.9-39.7
								L30.9-39.7z"/>
							<path class="st2" d="M38.6-39.7c-0.7,0-1.2,0.5-1.2,1.2s0.5,1.2,1.2,1.2s1.2-0.5,1.2-1.2C39.8-39.1,39.2-39.7,38.6-39.7
								L38.6-39.7z"/>
							<path class="st2" d="M46.3-39.7c-0.7,0-1.2,0.5-1.2,1.2s0.5,1.2,1.2,1.2s1.2-0.5,1.2-1.2C47.5-39.1,46.9-39.7,46.3-39.7
								L46.3-39.7z"/>
							<path class="st2" d="M53.9-39.7c-0.7,0-1.2,0.5-1.2,1.2s0.5,1.2,1.2,1.2s1.2-0.5,1.2-1.2C55.2-39.1,54.6-39.7,53.9-39.7
								L53.9-39.7z"/>
							<path class="st2" d="M61.6-39.7c-0.7,0-1.2,0.5-1.2,1.2s0.5,1.2,1.2,1.2s1.2-0.5,1.2-1.2C62.9-39.1,62.3-39.7,61.6-39.7
								L61.6-39.7z"/>
							<path class="st2" d="M69.3-39.7c-0.7,0-1.2,0.5-1.2,1.2s0.5,1.2,1.2,1.2s1.2-0.5,1.2-1.2C70.6-39.1,70-39.7,69.3-39.7
								L69.3-39.7z"/>
							<path class="st2" d="M77-39.7c-0.7,0-1.2,0.5-1.2,1.2s0.5,1.2,1.2,1.2s1.2-0.5,1.2-1.2C78.2-39.1,77.7-39.7,77-39.7L77-39.7z
								"/>
							<path class="st2" d="M84.7-39.7c-0.7,0-1.2,0.5-1.2,1.2s0.5,1.2,1.2,1.2s1.2-0.5,1.2-1.2C85.9-39.1,85.4-39.7,84.7-39.7
								L84.7-39.7z"/>
							<path class="st2" d="M92.4-39.7c-0.7,0-1.2,0.5-1.2,1.2s0.5,1.2,1.2,1.2s1.2-0.5,1.2-1.2C93.6-39.1,93.1-39.7,92.4-39.7
								L92.4-39.7z"/>
							<path class="st2" d="M1.3-38.5L1.3-38.5c0-0.7-0.5-1.2-1.2-1.2v2.4C0.8-37.2,1.3-37.8,1.3-38.5L1.3-38.5z"/>
							<path class="st2" d="M98.9-38.5L98.9-38.5c0-0.7,0.5-1.2,1.2-1.2l0,0C99.4-39.7,98.9-39.1,98.9-38.5L98.9-38.5z"/>
							<path class="st2" d="M7.8-32c-0.7,0-1.2,0.5-1.2,1.2s0.5,1.2,1.2,1.2S9-30.1,9-30.8C9-31.5,8.5-32,7.8-32L7.8-32z"/>
							<path class="st2" d="M15.5-32c-0.7,0-1.2,0.5-1.2,1.2s0.5,1.2,1.2,1.2c0.7,0,1.2-0.5,1.2-1.2S16.2-32,15.5-32L15.5-32z"/>
							<path class="st2" d="M23.2-32c-0.7,0-1.2,0.5-1.2,1.2s0.5,1.2,1.2,1.2s1.2-0.5,1.2-1.2C24.4-31.5,23.9-32,23.2-32L23.2-32z"
								/>
							<path class="st2" d="M30.9-32c-0.7,0-1.2,0.5-1.2,1.2s0.5,1.2,1.2,1.2s1.2-0.5,1.2-1.2S31.5-32,30.9-32L30.9-32z"/>
							<path class="st2" d="M38.6-32c-0.7,0-1.2,0.5-1.2,1.2s0.5,1.2,1.2,1.2s1.2-0.5,1.2-1.2S39.2-32,38.6-32L38.6-32z"/>
							<path class="st2" d="M46.3-32c-0.7,0-1.2,0.5-1.2,1.2s0.5,1.2,1.2,1.2s1.2-0.5,1.2-1.2S46.9-32,46.3-32L46.3-32z"/>
							<path class="st2" d="M53.9-32c-0.7,0-1.2,0.5-1.2,1.2s0.5,1.2,1.2,1.2s1.2-0.5,1.2-1.2C55.1-31.5,54.6-32,53.9-32L53.9-32z"
								/>
							<path class="st2" d="M61.6-32c-0.7,0-1.2,0.5-1.2,1.2s0.5,1.2,1.2,1.2s1.2-0.5,1.2-1.2S62.3-32,61.6-32L61.6-32z"/>
							<path class="st2" d="M69.3-32c-0.7,0-1.2,0.5-1.2,1.2s0.5,1.2,1.2,1.2s1.2-0.5,1.2-1.2S70-32,69.3-32L69.3-32z"/>
							<path class="st2" d="M77-32c-0.7,0-1.2,0.5-1.2,1.2s0.5,1.2,1.2,1.2s1.2-0.5,1.2-1.2S77.7-32,77-32L77-32z"/>
							<path class="st2" d="M84.7-32c-0.7,0-1.2,0.5-1.2,1.2s0.5,1.2,1.2,1.2s1.2-0.5,1.2-1.2C85.9-31.5,85.4-32,84.7-32L84.7-32z"
								/>
							<path class="st2" d="M92.4-32c-0.7,0-1.2,0.5-1.2,1.2s0.5,1.2,1.2,1.2s1.2-0.5,1.2-1.2S93.1-32,92.4-32L92.4-32z"/>
							<path class="st2" d="M1.3-30.8L1.3-30.8c0-0.6-0.5-1.2-1.2-1.2v2.4C0.8-29.5,1.3-30.1,1.3-30.8L1.3-30.8z"/>
							<path class="st2" d="M98.9-30.8L98.9-30.8c0-0.7,0.5-1.2,1.2-1.2l0,0C99.4-32,98.9-31.4,98.9-30.8L98.9-30.8z"/>
							<path class="st2" d="M7.8-24.3c-0.7,0-1.2,0.5-1.2,1.2s0.5,1.2,1.2,1.2S9-22.4,9-23.1C9-23.8,8.5-24.3,7.8-24.3L7.8-24.3z"/>
							<path class="st2" d="M15.5-24.3c-0.7,0-1.2,0.5-1.2,1.2s0.5,1.2,1.2,1.2c0.7,0,1.2-0.5,1.2-1.2S16.2-24.3,15.5-24.3
								L15.5-24.3z"/>
							<path class="st2" d="M23.2-24.3c-0.7,0-1.2,0.5-1.2,1.2s0.5,1.2,1.2,1.2s1.2-0.5,1.2-1.2C24.4-23.8,23.9-24.3,23.2-24.3
								L23.2-24.3z"/>
							<path class="st2" d="M30.9-24.3c-0.7,0-1.2,0.5-1.2,1.2s0.5,1.2,1.2,1.2s1.2-0.5,1.2-1.2S31.5-24.3,30.9-24.3L30.9-24.3z"/>
							<path class="st2" d="M38.6-24.3c-0.7,0-1.2,0.5-1.2,1.2s0.5,1.2,1.2,1.2s1.2-0.5,1.2-1.2S39.2-24.3,38.6-24.3L38.6-24.3z"/>
							<path class="st2" d="M46.3-24.3c-0.7,0-1.2,0.5-1.2,1.2s0.5,1.2,1.2,1.2s1.2-0.5,1.2-1.2S46.9-24.3,46.3-24.3L46.3-24.3z"/>
							<path class="st2" d="M53.9-24.3c-0.7,0-1.2,0.5-1.2,1.2s0.5,1.2,1.2,1.2s1.2-0.5,1.2-1.2C55.2-23.8,54.6-24.3,53.9-24.3
								L53.9-24.3z"/>
							<path class="st2" d="M61.6-24.3c-0.7,0-1.2,0.5-1.2,1.2s0.5,1.2,1.2,1.2s1.2-0.5,1.2-1.2C62.9-23.8,62.3-24.3,61.6-24.3
								L61.6-24.3z"/>
							<path class="st2" d="M69.3-24.3c-0.7,0-1.2,0.5-1.2,1.2s0.5,1.2,1.2,1.2s1.2-0.5,1.2-1.2C70.6-23.8,70-24.3,69.3-24.3
								L69.3-24.3z"/>
							<path class="st2" d="M77-24.3c-0.7,0-1.2,0.5-1.2,1.2s0.5,1.2,1.2,1.2s1.2-0.5,1.2-1.2S77.7-24.3,77-24.3L77-24.3z"/>
							<path class="st2" d="M84.7-24.3c-0.7,0-1.2,0.5-1.2,1.2s0.5,1.2,1.2,1.2s1.2-0.5,1.2-1.2C85.9-23.8,85.4-24.3,84.7-24.3
								L84.7-24.3z"/>
							<path class="st2" d="M92.4-24.3c-0.7,0-1.2,0.5-1.2,1.2s0.5,1.2,1.2,1.2s1.2-0.5,1.2-1.2S93.1-24.3,92.4-24.3L92.4-24.3z"/>
							<path class="st2" d="M1.3-23.1L1.3-23.1c0-0.7-0.5-1.2-1.2-1.2v2.4C0.8-21.9,1.3-22.4,1.3-23.1L1.3-23.1z"/>
							<path class="st2" d="M98.9-23.1L98.9-23.1c0-0.7,0.5-1.2,1.2-1.2l0,0C99.4-24.3,98.9-23.8,98.9-23.1L98.9-23.1z"/>
							<path class="st2" d="M7.8-16.6c-0.7,0-1.2,0.5-1.2,1.2s0.5,1.2,1.2,1.2S9-14.7,9-15.4C9-16.1,8.5-16.6,7.8-16.6L7.8-16.6z"/>
							<path class="st2" d="M15.5-16.6c-0.7,0-1.2,0.5-1.2,1.2s0.5,1.2,1.2,1.2c0.7,0,1.2-0.5,1.2-1.2S16.2-16.6,15.5-16.6
								L15.5-16.6z"/>
							<path class="st2" d="M23.2-16.6c-0.7,0-1.2,0.5-1.2,1.2s0.5,1.2,1.2,1.2s1.2-0.5,1.2-1.2C24.4-16.1,23.9-16.6,23.2-16.6
								L23.2-16.6z"/>
							<path class="st2" d="M30.9-16.6c-0.7,0-1.2,0.5-1.2,1.2s0.5,1.2,1.2,1.2s1.2-0.5,1.2-1.2S31.5-16.6,30.9-16.6L30.9-16.6z"/>
							<path class="st2" d="M38.6-16.6c-0.7,0-1.2,0.5-1.2,1.2s0.5,1.2,1.2,1.2s1.2-0.5,1.2-1.2S39.2-16.6,38.6-16.6L38.6-16.6z"/>
							<path class="st2" d="M46.3-16.6c-0.7,0-1.2,0.5-1.2,1.2s0.5,1.2,1.2,1.2s1.2-0.5,1.2-1.2S46.9-16.6,46.3-16.6L46.3-16.6z"/>
							<path class="st2" d="M53.9-16.6c-0.7,0-1.2,0.5-1.2,1.2s0.5,1.2,1.2,1.2s1.2-0.5,1.2-1.2C55.1-16.1,54.6-16.6,53.9-16.6
								L53.9-16.6z"/>
							<path class="st2" d="M61.6-16.6c-0.7,0-1.2,0.5-1.2,1.2s0.5,1.2,1.2,1.2s1.2-0.5,1.2-1.2S62.3-16.6,61.6-16.6L61.6-16.6z"/>
							<path class="st2" d="M69.3-16.6c-0.7,0-1.2,0.5-1.2,1.2s0.5,1.2,1.2,1.2s1.2-0.5,1.2-1.2S70-16.6,69.3-16.6L69.3-16.6z"/>
							<path class="st2" d="M77-16.6c-0.7,0-1.2,0.5-1.2,1.2s0.5,1.2,1.2,1.2s1.2-0.5,1.2-1.2S77.7-16.6,77-16.6L77-16.6z"/>
							<path class="st2" d="M84.7-16.6c-0.7,0-1.2,0.5-1.2,1.2s0.5,1.2,1.2,1.2s1.2-0.5,1.2-1.2C85.9-16.1,85.4-16.6,84.7-16.6
								L84.7-16.6z"/>
							<path class="st2" d="M92.4-16.6c-0.7,0-1.2,0.5-1.2,1.2s0.5,1.2,1.2,1.2s1.2-0.5,1.2-1.2S93.1-16.6,92.4-16.6L92.4-16.6z"/>
							<path class="st2" d="M1.3-15.4L1.3-15.4c0-0.7-0.5-1.2-1.2-1.2v2.4C0.8-14.2,1.3-14.7,1.3-15.4L1.3-15.4z"/>
							<path class="st2" d="M98.9-15.4L98.9-15.4c0-0.7,0.5-1.2,1.2-1.2l0,0C99.4-16.6,98.9-16.1,98.9-15.4L98.9-15.4z"/>
							<path class="st2" d="M7.8-8.9c-0.7,0-1.2,0.5-1.2,1.2s0.5,1.2,1.2,1.2S9-7,9-7.7C9-8.4,8.5-8.9,7.8-8.9L7.8-8.9z"/>
							<path class="st2" d="M15.5-8.9c-0.7,0-1.2,0.5-1.2,1.2s0.5,1.2,1.2,1.2c0.7,0,1.2-0.5,1.2-1.2S16.2-8.9,15.5-8.9L15.5-8.9z"
								/>
							<path class="st2" d="M23.2-8.9c-0.7,0-1.2,0.5-1.2,1.2s0.5,1.2,1.2,1.2s1.2-0.5,1.2-1.2C24.4-8.4,23.9-8.9,23.2-8.9L23.2-8.9
								z"/>
							<path class="st2" d="M30.9-8.9c-0.7,0-1.2,0.5-1.2,1.2s0.5,1.2,1.2,1.2s1.2-0.5,1.2-1.2S31.5-8.9,30.9-8.9L30.9-8.9z"/>
							<path class="st2" d="M38.6-8.9c-0.7,0-1.2,0.5-1.2,1.2s0.5,1.2,1.2,1.2s1.2-0.5,1.2-1.2S39.2-8.9,38.6-8.9L38.6-8.9z"/>
							<path class="st2" d="M46.3-8.9c-0.7,0-1.2,0.5-1.2,1.2s0.5,1.2,1.2,1.2s1.2-0.5,1.2-1.2S46.9-8.9,46.3-8.9L46.3-8.9z"/>
							<path class="st2" d="M53.9-8.9c-0.7,0-1.2,0.5-1.2,1.2s0.5,1.2,1.2,1.2s1.2-0.5,1.2-1.2C55.2-8.4,54.6-8.9,53.9-8.9L53.9-8.9
								z"/>
							<path class="st2" d="M61.6-8.9c-0.7,0-1.2,0.5-1.2,1.2s0.5,1.2,1.2,1.2s1.2-0.5,1.2-1.2C62.9-8.4,62.3-8.9,61.6-8.9L61.6-8.9
								z"/>
							<path class="st2" d="M69.3-8.9c-0.7,0-1.2,0.5-1.2,1.2s0.5,1.2,1.2,1.2s1.2-0.5,1.2-1.2C70.6-8.4,70-8.9,69.3-8.9L69.3-8.9z"
								/>
							<path class="st2" d="M77-8.9c-0.7,0-1.2,0.5-1.2,1.2s0.5,1.2,1.2,1.2s1.2-0.5,1.2-1.2S77.7-8.9,77-8.9L77-8.9z"/>
							<path class="st2" d="M84.7-8.9c-0.7,0-1.2,0.5-1.2,1.2s0.5,1.2,1.2,1.2s1.2-0.5,1.2-1.2C85.9-8.4,85.4-8.9,84.7-8.9L84.7-8.9
								z"/>
							<path class="st2" d="M92.4-8.9c-0.7,0-1.2,0.5-1.2,1.2s0.5,1.2,1.2,1.2s1.2-0.5,1.2-1.2S93.1-8.9,92.4-8.9L92.4-8.9z"/>
							<path class="st2" d="M1.3-7.7L1.3-7.7c0-0.7-0.5-1.2-1.2-1.2v2.4C0.8-6.5,1.3-7,1.3-7.7L1.3-7.7z"/>
							<path class="st2" d="M98.9-7.7L98.9-7.7c0-0.7,0.5-1.2,1.2-1.2l0,0C99.4-8.9,98.9-8.4,98.9-7.7L98.9-7.7z"/>
							<path class="st2" d="M98.9-92.3L98.9-92.3c0,0.3,0.1,0.6,0.4,0.9c0.2,0.2,0.5,0.4,0.9,0.4v-2.4C99.4-93.5,98.9-93,98.9-92.3
								L98.9-92.3z"/>
							<path class="st2" d="M98.9-84.6L98.9-84.6c0,0.3,0.1,0.6,0.4,0.9c0.2,0.2,0.5,0.4,0.9,0.4v-2.4c-0.3,0-0.6,0.1-0.9,0.4
								C99-85.3,98.9-85,98.9-84.6L98.9-84.6z"/>
							<path class="st2" d="M98.9-76.9L98.9-76.9c0,0.7,0.5,1.2,1.2,1.2v-2.4C99.4-78.1,98.9-77.6,98.9-76.9L98.9-76.9z"/>
							<path class="st2" d="M98.9-69.2L98.9-69.2c0,0.7,0.5,1.2,1.2,1.2v-2.4C99.4-70.5,98.9-69.9,98.9-69.2L98.9-69.2z"/>
							<path class="st2" d="M98.9-61.5L98.9-61.5c0,0.7,0.5,1.2,1.2,1.2v-2.4C99.4-62.8,98.9-62.2,98.9-61.5L98.9-61.5z"/>
							<path class="st2" d="M98.9-53.8L98.9-53.8c0,0.7,0.5,1.2,1.2,1.2V-55C99.4-55.1,98.9-54.5,98.9-53.8L98.9-53.8z"/>
							<path class="st2" d="M98.9-46.2L98.9-46.2c0,0.7,0.5,1.2,1.2,1.2v-2.4C99.4-47.4,98.9-46.8,98.9-46.2L98.9-46.2z"/>
							<path class="st2" d="M98.9-38.5L98.9-38.5c0,0.7,0.5,1.2,1.2,1.2v-2.4C99.4-39.7,98.9-39.1,98.9-38.5L98.9-38.5z"/>
							<path class="st2" d="M98.9-30.8L98.9-30.8c0,0.7,0.5,1.2,1.2,1.2V-32C99.4-32,98.9-31.4,98.9-30.8L98.9-30.8z"/>
							<path class="st2" d="M98.9-23.1L98.9-23.1c0,0.7,0.5,1.2,1.2,1.2v-2.4C99.4-24.3,98.9-23.8,98.9-23.1L98.9-23.1z"/>
							<path class="st2" d="M98.9-15.4L98.9-15.4c0,0.7,0.5,1.2,1.2,1.2v-2.4C99.4-16.6,98.9-16.1,98.9-15.4L98.9-15.4z"/>
							<path class="st2" d="M98.9-7.7L98.9-7.7c0,0.7,0.5,1.2,1.2,1.2v-2.4C99.4-8.9,98.9-8.4,98.9-7.7L98.9-7.7z"/>
							<path class="st2" d="M100.1-1.2c-0.7,0-1.2,0.5-1.2,1.2h1.2V-1.2L100.1-1.2z"/>
						</g>
					</g>
				</g>
			</g>
		</g>
	</g>
</pattern>
<pattern  y="800.8" width="100" height="100" patternUnits="userSpaceOnUse" id="SVGID_2_3" viewBox="0.1 -100 100 100" style="overflow:visible;">
	<g>
		<rect x="0.1" y="-100" class="st0" width="100" height="100"/>
		<g>
			<rect x="0.1" y="-100" class="st0" width="100" height="100"/>
			<g>
				<rect x="0.1" y="-100" class="st0" width="100" height="100"/>
				<g>
					<rect x="0.1" y="-100" class="st0" width="100" height="100"/>
					<g>
						<rect x="0.1" y="-100" class="st0" width="100" height="100"/>
						<g>
							<rect x="0.1" y="-100" class="st0" width="100" height="100"/>
							<path class="st2" d="M7.8-1.2C7.1-1.2,6.6-0.7,6.6,0H9C9-0.7,8.5-1.2,7.8-1.2L7.8-1.2z"/>
							<path class="st2" d="M15.5-1.2c-0.7,0-1.2,0.5-1.2,1.2h2.4C16.7-0.7,16.2-1.2,15.5-1.2L15.5-1.2z"/>
							<path class="st2" d="M23.2-1.2C22.5-1.2,22-0.7,22,0h2.4C24.4-0.7,23.9-1.2,23.2-1.2L23.2-1.2z"/>
							<path class="st2" d="M30.9-1.2c-0.7,0-1.2,0.5-1.2,1.2h2.4C32.1-0.7,31.5-1.2,30.9-1.2L30.9-1.2z"/>
							<path class="st2" d="M38.6-1.2c-0.7,0-1.2,0.5-1.2,1.2h2.4C39.8-0.7,39.2-1.2,38.6-1.2L38.6-1.2z"/>
							<path class="st2" d="M46.3-1.2c-0.7,0-1.2,0.5-1.2,1.2h2.4C47.5-0.7,46.9-1.2,46.3-1.2L46.3-1.2z"/>
							<path class="st2" d="M53.9-1.2c-0.7,0-1.2,0.5-1.2,1.2h2.4C55.2-0.7,54.6-1.2,53.9-1.2L53.9-1.2z"/>
							<path class="st2" d="M61.6-1.2c-0.7,0-1.2,0.5-1.2,1.2h2.4C62.9-0.7,62.3-1.2,61.6-1.2L61.6-1.2z"/>
							<path class="st2" d="M69.3-1.2c-0.7,0-1.2,0.5-1.2,1.2h2.4C70.6-0.7,70-1.2,69.3-1.2L69.3-1.2z"/>
							<path class="st2" d="M77-1.2c-0.7,0-1.2,0.5-1.2,1.2h2.4C78.2-0.7,77.7-1.2,77-1.2L77-1.2z"/>
							<path class="st2" d="M84.7-1.2c-0.7,0-1.2,0.5-1.2,1.2h2.4C85.9-0.7,85.4-1.2,84.7-1.2L84.7-1.2z"/>
							<path class="st2" d="M92.4-1.2c-0.7,0-1.2,0.5-1.2,1.2h2.4C93.6-0.7,93.1-1.2,92.4-1.2L92.4-1.2z"/>
							<path class="st2" d="M1.3-92.3L1.3-92.3c0,0.3-0.1,0.6-0.4,0.9C1.2-91.7,1.3-92,1.3-92.3L1.3-92.3z"/>
							<path class="st2" d="M1.3-84.6L1.3-84.6c0,0.3-0.1,0.6-0.4,0.9C1.2-84,1.3-84.3,1.3-84.6L1.3-84.6z"/>
							<path class="st2" d="M1.3-76.9L1.3-76.9c0,0.7-0.5,1.2-1.2,1.2l0,0C0.8-75.7,1.3-76.2,1.3-76.9L1.3-76.9z"/>
							<path class="st2" d="M1.3-69.2L1.3-69.2c0,0.6-0.5,1.2-1.2,1.2l0,0C0.8-68,1.3-68.6,1.3-69.2L1.3-69.2z"/>
							<path class="st2" d="M1.3-61.5L1.3-61.5c0,0.7-0.5,1.2-1.2,1.2l0,0C0.8-60.3,1.3-60.9,1.3-61.5L1.3-61.5z"/>
							<path class="st2" d="M1.3-53.8L1.3-53.8c0,0.7-0.5,1.2-1.2,1.2l0,0C0.8-52.6,1.3-53.2,1.3-53.8L1.3-53.8z"/>
							<path class="st2" d="M1.3-46.2L1.3-46.2c0,0.7-0.5,1.2-1.2,1.2l0,0C0.8-44.9,1.3-45.5,1.3-46.2L1.3-46.2z"/>
							<path class="st2" d="M1.3-38.5L1.3-38.5c0,0.7-0.5,1.2-1.2,1.2l0,0C0.8-37.2,1.3-37.8,1.3-38.5L1.3-38.5z"/>
							<path class="st2" d="M1.3-30.8L1.3-30.8c0,0.7-0.5,1.2-1.2,1.2l0,0C0.8-29.5,1.3-30.1,1.3-30.8L1.3-30.8z"/>
							<path class="st2" d="M1.3-23.1L1.3-23.1c0,0.7-0.5,1.2-1.2,1.2l0,0C0.8-21.9,1.3-22.4,1.3-23.1L1.3-23.1z"/>
							<path class="st2" d="M1.3-15.4L1.3-15.4c0,0.7-0.5,1.2-1.2,1.2l0,0C0.8-14.2,1.3-14.7,1.3-15.4L1.3-15.4z"/>
							<path class="st2" d="M1.3-7.7L1.3-7.7c0,0.7-0.5,1.2-1.2,1.2l0,0C0.8-6.5,1.3-7,1.3-7.7L1.3-7.7z"/>
							<path class="st2" d="M0.1-1.2V0h1.2C1.3-0.7,0.8-1.2,0.1-1.2L0.1-1.2z"/>
							<path class="st2" d="M7.8-98.8c0.7,0,1.2-0.5,1.2-1.2H6.6C6.6-99.3,7.1-98.8,7.8-98.8L7.8-98.8z"/>
							<path class="st2" d="M15.5-98.8c0.7,0,1.2-0.5,1.2-1.2h-2.4C14.3-99.3,14.8-98.8,15.5-98.8L15.5-98.8z"/>
							<path class="st2" d="M23.2-98.8c0.7,0,1.2-0.5,1.2-1.2H22C22-99.3,22.5-98.8,23.2-98.8L23.2-98.8z"/>
							<path class="st2" d="M30.9-98.8c0.6,0,1.2-0.5,1.2-1.2h-2.4C29.6-99.3,30.2-98.8,30.9-98.8L30.9-98.8z"/>
							<path class="st2" d="M38.6-98.8c0.7,0,1.2-0.5,1.2-1.2h-2.4C37.3-99.3,37.9-98.8,38.6-98.8L38.6-98.8z"/>
							<path class="st2" d="M46.3-98.8c0.7,0,1.2-0.5,1.2-1.2h-2.4C45-99.3,45.6-98.8,46.3-98.8L46.3-98.8z"/>
							<path class="st2" d="M53.9-98.8c0.7,0,1.2-0.5,1.2-1.2h-2.4C52.7-99.3,53.3-98.8,53.9-98.8L53.9-98.8z"/>
							<path class="st2" d="M61.6-98.8c0.7,0,1.2-0.5,1.2-1.2h-2.4C60.4-99.3,61-98.8,61.6-98.8L61.6-98.8z"/>
							<path class="st2" d="M69.3-98.8c0.7,0,1.2-0.5,1.2-1.2h-2.4C68.1-99.3,68.7-98.8,69.3-98.8L69.3-98.8z"/>
							<path class="st2" d="M77-98.8c0.7,0,1.2-0.5,1.2-1.2h-2.4C75.8-99.3,76.3-98.8,77-98.8L77-98.8z"/>
							<path class="st2" d="M84.7-98.8c0.7,0,1.2-0.5,1.2-1.2h-2.4C83.5-99.3,84-98.8,84.7-98.8L84.7-98.8z"/>
							<path class="st2" d="M92.4-98.8c0.7,0,1.2-0.5,1.2-1.2h-2.4C91.2-99.3,91.7-98.8,92.4-98.8L92.4-98.8z"/>
							<path class="st2" d="M1.3-100H0.1v1.2C0.8-98.8,1.3-99.3,1.3-100L1.3-100z"/>
							<path class="st2" d="M100.1-98.8v-1.2h-1.2C98.9-99.3,99.4-98.8,100.1-98.8L100.1-98.8z"/>
							<path class="st2" d="M7.8-93.5c-0.7,0-1.2,0.5-1.2,1.2c0,0.7,0.5,1.2,1.2,1.2S9-91.6,9-92.3C9-93,8.5-93.5,7.8-93.5L7.8-93.5
								z"/>
							<path class="st2" d="M15.5-93.5c-0.7,0-1.2,0.5-1.2,1.2c0,0.7,0.5,1.2,1.2,1.2c0.7,0,1.2-0.5,1.2-1.2
								C16.7-93,16.2-93.5,15.5-93.5L15.5-93.5z"/>
							<path class="st2" d="M23.2-93.5c-0.7,0-1.2,0.5-1.2,1.2c0,0.7,0.5,1.2,1.2,1.2s1.2-0.5,1.2-1.2C24.4-93,23.9-93.5,23.2-93.5
								L23.2-93.5z"/>
							<path class="st2" d="M30.9-93.5c-0.7,0-1.2,0.5-1.2,1.2c0,0.7,0.5,1.2,1.2,1.2s1.2-0.5,1.2-1.2C32.1-93,31.5-93.5,30.9-93.5
								L30.9-93.5z"/>
							<path class="st2" d="M38.6-93.5c-0.7,0-1.2,0.5-1.2,1.2c0,0.7,0.5,1.2,1.2,1.2s1.2-0.5,1.2-1.2C39.8-93,39.2-93.5,38.6-93.5
								L38.6-93.5z"/>
							<path class="st2" d="M46.3-93.5c-0.7,0-1.2,0.5-1.2,1.2c0,0.7,0.5,1.2,1.2,1.2s1.2-0.5,1.2-1.2C47.5-93,46.9-93.5,46.3-93.5
								L46.3-93.5z"/>
							<path class="st2" d="M53.9-93.5c-0.7,0-1.2,0.5-1.2,1.2c0,0.7,0.5,1.2,1.2,1.2s1.2-0.5,1.2-1.2C55.2-93,54.6-93.5,53.9-93.5
								L53.9-93.5z"/>
							<path class="st2" d="M61.6-93.5c-0.7,0-1.2,0.5-1.2,1.2c0,0.7,0.5,1.2,1.2,1.2s1.2-0.5,1.2-1.2C62.9-93,62.3-93.5,61.6-93.5
								L61.6-93.5z"/>
							<path class="st2" d="M69.3-93.5c-0.6,0-1.2,0.5-1.2,1.2c0,0.7,0.5,1.2,1.2,1.2s1.2-0.5,1.2-1.2C70.6-93,70-93.5,69.3-93.5
								L69.3-93.5z"/>
							<path class="st2" d="M77-93.5c-0.7,0-1.2,0.5-1.2,1.2c0,0.7,0.5,1.2,1.2,1.2s1.2-0.5,1.2-1.2C78.2-93,77.7-93.5,77-93.5
								L77-93.5z"/>
							<path class="st2" d="M84.7-93.5c-0.7,0-1.2,0.5-1.2,1.2c0,0.7,0.5,1.2,1.2,1.2s1.2-0.5,1.2-1.2C85.9-93,85.4-93.5,84.7-93.5
								L84.7-93.5z"/>
							<path class="st2" d="M92.4-93.5c-0.7,0-1.2,0.5-1.2,1.2c0,0.7,0.5,1.2,1.2,1.2s1.2-0.5,1.2-1.2C93.6-93,93.1-93.5,92.4-93.5
								L92.4-93.5z"/>
							<path class="st2" d="M1.3-92.3L1.3-92.3c0-0.7-0.5-1.2-1.2-1.2v2.4c0.3,0,0.6-0.1,0.9-0.4C1.2-91.7,1.3-92,1.3-92.3L1.3-92.3
								z"/>
							<path class="st2" d="M98.9-92.3L98.9-92.3c0-0.7,0.5-1.2,1.2-1.2l0,0C99.4-93.5,98.9-93,98.9-92.3L98.9-92.3z"/>
							<path class="st2" d="M7.8-85.8c-0.7,0-1.2,0.5-1.2,1.2c0,0.7,0.5,1.2,1.2,1.2S9-83.9,9-84.6C9-85.3,8.5-85.8,7.8-85.8
								L7.8-85.8z"/>
							<path class="st2" d="M15.5-85.8c-0.7,0-1.2,0.5-1.2,1.2c0,0.7,0.5,1.2,1.2,1.2c0.7,0,1.2-0.5,1.2-1.2
								C16.7-85.3,16.2-85.8,15.5-85.8L15.5-85.8z"/>
							<path class="st2" d="M23.2-85.8c-0.7,0-1.2,0.5-1.2,1.2c0,0.7,0.5,1.2,1.2,1.2s1.2-0.5,1.2-1.2
								C24.4-85.3,23.9-85.8,23.2-85.8L23.2-85.8z"/>
							<path class="st2" d="M30.9-85.8c-0.7,0-1.2,0.5-1.2,1.2c0,0.7,0.5,1.2,1.2,1.2s1.2-0.5,1.2-1.2
								C32.1-85.3,31.5-85.8,30.9-85.8L30.9-85.8z"/>
							<path class="st2" d="M38.6-85.8c-0.7,0-1.2,0.5-1.2,1.2c0,0.7,0.5,1.2,1.2,1.2s1.2-0.5,1.2-1.2
								C39.8-85.3,39.2-85.8,38.6-85.8L38.6-85.8z"/>
							<path class="st2" d="M46.3-85.8c-0.7,0-1.2,0.5-1.2,1.2c0,0.7,0.5,1.2,1.2,1.2s1.2-0.5,1.2-1.2
								C47.5-85.3,46.9-85.8,46.3-85.8L46.3-85.8z"/>
							<path class="st2" d="M53.9-85.8c-0.7,0-1.2,0.5-1.2,1.2c0,0.7,0.5,1.2,1.2,1.2s1.2-0.5,1.2-1.2
								C55.2-85.3,54.6-85.8,53.9-85.8L53.9-85.8z"/>
							<path class="st2" d="M61.6-85.8c-0.7,0-1.2,0.5-1.2,1.2c0,0.7,0.5,1.2,1.2,1.2s1.2-0.5,1.2-1.2
								C62.9-85.3,62.3-85.8,61.6-85.8L61.6-85.8z"/>
							<path class="st2" d="M69.3-85.8c-0.7,0-1.2,0.5-1.2,1.2c0,0.7,0.5,1.2,1.2,1.2s1.2-0.5,1.2-1.2C70.6-85.3,70-85.8,69.3-85.8
								L69.3-85.8z"/>
							<path class="st2" d="M77-85.8c-0.7,0-1.2,0.5-1.2,1.2c0,0.7,0.5,1.2,1.2,1.2s1.2-0.5,1.2-1.2C78.2-85.3,77.7-85.8,77-85.8
								L77-85.8z"/>
							<path class="st2" d="M84.7-85.8c-0.7,0-1.2,0.5-1.2,1.2c0,0.7,0.5,1.2,1.2,1.2s1.2-0.5,1.2-1.2
								C85.9-85.3,85.4-85.8,84.7-85.8L84.7-85.8z"/>
							<path class="st2" d="M92.4-85.8c-0.7,0-1.2,0.5-1.2,1.2c0,0.7,0.5,1.2,1.2,1.2s1.2-0.5,1.2-1.2
								C93.6-85.3,93.1-85.8,92.4-85.8L92.4-85.8z"/>
							<path class="st2" d="M1.3-84.6L1.3-84.6c0-0.3-0.1-0.6-0.4-0.9c-0.2-0.2-0.5-0.4-0.9-0.4v2.4c0.3,0,0.6-0.1,0.9-0.4
								C1.2-84,1.3-84.3,1.3-84.6L1.3-84.6z"/>
							<path class="st2" d="M98.9-84.6L98.9-84.6c0-0.3,0.1-0.6,0.4-0.9C99-85.3,98.9-85,98.9-84.6L98.9-84.6z"/>
							<path class="st2" d="M7.8-78.1c-0.7,0-1.2,0.5-1.2,1.2c0,0.7,0.5,1.2,1.2,1.2S9-76.2,9-76.9C9-77.6,8.5-78.1,7.8-78.1
								L7.8-78.1z"/>
							<path class="st2" d="M15.5-78.1c-0.7,0-1.2,0.5-1.2,1.2c0,0.7,0.5,1.2,1.2,1.2c0.7,0,1.2-0.5,1.2-1.2
								C16.7-77.6,16.2-78.1,15.5-78.1L15.5-78.1z"/>
							<path class="st2" d="M23.2-78.1c-0.7,0-1.2,0.5-1.2,1.2c0,0.7,0.5,1.2,1.2,1.2s1.2-0.5,1.2-1.2
								C24.4-77.6,23.9-78.1,23.2-78.1L23.2-78.1z"/>
							<path class="st2" d="M30.9-78.1c-0.7,0-1.2,0.5-1.2,1.2c0,0.7,0.5,1.2,1.2,1.2s1.2-0.5,1.2-1.2
								C32.1-77.6,31.5-78.1,30.9-78.1L30.9-78.1z"/>
							<path class="st2" d="M38.6-78.1c-0.7,0-1.2,0.5-1.2,1.2c0,0.7,0.5,1.2,1.2,1.2s1.2-0.5,1.2-1.2
								C39.8-77.6,39.2-78.1,38.6-78.1L38.6-78.1z"/>
							<path class="st2" d="M46.3-78.1c-0.7,0-1.2,0.5-1.2,1.2c0,0.7,0.5,1.2,1.2,1.2s1.2-0.5,1.2-1.2
								C47.5-77.6,46.9-78.1,46.3-78.1L46.3-78.1z"/>
							<path class="st2" d="M53.9-78.1c-0.7,0-1.2,0.5-1.2,1.2c0,0.7,0.5,1.2,1.2,1.2s1.2-0.5,1.2-1.2
								C55.2-77.6,54.6-78.1,53.9-78.1L53.9-78.1z"/>
							<path class="st2" d="M61.6-78.1c-0.7,0-1.2,0.5-1.2,1.2c0,0.7,0.5,1.2,1.2,1.2s1.2-0.5,1.2-1.2
								C62.9-77.6,62.3-78.1,61.6-78.1L61.6-78.1z"/>
							<path class="st2" d="M69.3-78.1c-0.7,0-1.2,0.5-1.2,1.2c0,0.7,0.5,1.2,1.2,1.2s1.2-0.5,1.2-1.2C70.6-77.6,70-78.1,69.3-78.1
								L69.3-78.1z"/>
							<path class="st2" d="M77-78.1c-0.7,0-1.2,0.5-1.2,1.2c0,0.7,0.5,1.2,1.2,1.2s1.2-0.5,1.2-1.2C78.2-77.6,77.7-78.1,77-78.1
								L77-78.1z"/>
							<path class="st2" d="M84.7-78.1c-0.7,0-1.2,0.5-1.2,1.2c0,0.7,0.5,1.2,1.2,1.2s1.2-0.5,1.2-1.2
								C85.9-77.6,85.4-78.1,84.7-78.1L84.7-78.1z"/>
							<path class="st2" d="M92.4-78.1c-0.7,0-1.2,0.5-1.2,1.2c0,0.7,0.5,1.2,1.2,1.2s1.2-0.5,1.2-1.2
								C93.6-77.6,93.1-78.1,92.4-78.1L92.4-78.1z"/>
							<path class="st2" d="M1.3-76.9L1.3-76.9c0-0.7-0.5-1.2-1.2-1.2v2.4C0.8-75.7,1.3-76.2,1.3-76.9L1.3-76.9z"/>
							<path class="st2" d="M98.9-76.9L98.9-76.9c0-0.7,0.5-1.2,1.2-1.2l0,0C99.4-78.1,98.9-77.6,98.9-76.9L98.9-76.9z"/>
							<path class="st2" d="M7.8-70.5c-0.7,0-1.2,0.5-1.2,1.2c0,0.7,0.5,1.3,1.2,1.3S9-68.5,9-69.2C9-69.9,8.5-70.5,7.8-70.5
								L7.8-70.5z"/>
							<path class="st2" d="M15.5-70.5c-0.7,0-1.2,0.5-1.2,1.2c0,0.7,0.5,1.2,1.2,1.2c0.7,0,1.2-0.5,1.2-1.2
								C16.7-69.9,16.2-70.5,15.5-70.5L15.5-70.5z"/>
							<path class="st2" d="M23.2-70.5c-0.7,0-1.2,0.5-1.2,1.2c0,0.7,0.5,1.2,1.2,1.2s1.2-0.5,1.2-1.2
								C24.4-69.9,23.9-70.5,23.2-70.5L23.2-70.5z"/>
							<path class="st2" d="M30.9-70.5c-0.7,0-1.2,0.5-1.2,1.2c0,0.7,0.5,1.2,1.2,1.2s1.2-0.5,1.2-1.2
								C32.1-69.9,31.5-70.5,30.9-70.5L30.9-70.5z"/>
							<path class="st2" d="M38.6-70.5c-0.7,0-1.2,0.5-1.2,1.2c0,0.7,0.5,1.2,1.2,1.2s1.2-0.5,1.2-1.2
								C39.8-69.9,39.2-70.5,38.6-70.5L38.6-70.5z"/>
							<path class="st2" d="M46.3-70.5c-0.7,0-1.2,0.5-1.2,1.2c0,0.7,0.5,1.2,1.2,1.2s1.2-0.5,1.2-1.2
								C47.5-69.9,46.9-70.5,46.3-70.5L46.3-70.5z"/>
							<path class="st2" d="M53.9-70.5c-0.7,0-1.2,0.5-1.2,1.2c0,0.7,0.5,1.2,1.2,1.2s1.2-0.5,1.2-1.2
								C55.2-69.9,54.6-70.5,53.9-70.5L53.9-70.5z"/>
							<path class="st2" d="M61.6-70.5c-0.7,0-1.2,0.5-1.2,1.2c0,0.7,0.5,1.2,1.2,1.2s1.2-0.5,1.2-1.2
								C62.9-69.9,62.3-70.5,61.6-70.5L61.6-70.5z"/>
							<path class="st2" d="M69.3-70.5c-0.7,0-1.2,0.5-1.2,1.2c0,0.7,0.5,1.2,1.2,1.2s1.2-0.5,1.2-1.2C70.6-69.9,70-70.5,69.3-70.5
								L69.3-70.5z"/>
							<path class="st2" d="M77-70.5c-0.7,0-1.2,0.5-1.2,1.2c0,0.7,0.5,1.2,1.2,1.2s1.2-0.5,1.2-1.2C78.2-69.9,77.7-70.5,77-70.5
								L77-70.5z"/>
							<path class="st2" d="M84.7-70.5c-0.7,0-1.2,0.5-1.2,1.2c0,0.7,0.5,1.2,1.2,1.2s1.2-0.5,1.2-1.2
								C85.9-69.9,85.4-70.5,84.7-70.5L84.7-70.5z"/>
							<path class="st2" d="M92.4-70.5c-0.7,0-1.2,0.5-1.2,1.2c0,0.7,0.5,1.2,1.2,1.2s1.2-0.5,1.2-1.2
								C93.6-69.9,93.1-70.5,92.4-70.5L92.4-70.5z"/>
							<path class="st2" d="M1.3-69.2L1.3-69.2c0-0.7-0.5-1.2-1.2-1.2v2.4C0.8-68,1.3-68.6,1.3-69.2L1.3-69.2z"/>
							<path class="st2" d="M98.9-69.2L98.9-69.2c0-0.7,0.5-1.2,1.2-1.2l0,0C99.4-70.5,98.9-69.9,98.9-69.2L98.9-69.2z"/>
							<path class="st2" d="M7.8-62.8c-0.7,0-1.2,0.5-1.2,1.2s0.5,1.2,1.2,1.2S9-60.9,9-61.6C9-62.2,8.5-62.8,7.8-62.8L7.8-62.8z"/>
							<path class="st2" d="M15.5-62.8c-0.7,0-1.2,0.5-1.2,1.2s0.5,1.2,1.2,1.2c0.7,0,1.2-0.5,1.2-1.2
								C16.7-62.2,16.2-62.8,15.5-62.8L15.5-62.8z"/>
							<path class="st2" d="M23.2-62.8c-0.7,0-1.2,0.5-1.2,1.2s0.5,1.2,1.2,1.2s1.2-0.5,1.2-1.2C24.4-62.2,23.9-62.8,23.2-62.8
								L23.2-62.8z"/>
							<path class="st2" d="M30.9-62.8c-0.7,0-1.2,0.5-1.2,1.2s0.5,1.2,1.2,1.2s1.2-0.5,1.2-1.2C32.1-62.2,31.5-62.8,30.9-62.8
								L30.9-62.8z"/>
							<path class="st2" d="M38.6-62.8c-0.7,0-1.2,0.5-1.2,1.2s0.5,1.2,1.2,1.2s1.2-0.5,1.2-1.2C39.8-62.2,39.2-62.8,38.6-62.8
								L38.6-62.8z"/>
							<path class="st2" d="M46.3-62.8c-0.7,0-1.2,0.5-1.2,1.2s0.5,1.2,1.2,1.2s1.2-0.5,1.2-1.2C47.5-62.2,46.9-62.8,46.3-62.8
								L46.3-62.8z"/>
							<path class="st2" d="M53.9-62.8c-0.7,0-1.2,0.5-1.2,1.2s0.5,1.2,1.2,1.2s1.2-0.5,1.2-1.2C55.2-62.2,54.6-62.8,53.9-62.8
								L53.9-62.8z"/>
							<path class="st2" d="M61.6-62.8c-0.7,0-1.2,0.5-1.2,1.2s0.5,1.2,1.2,1.2s1.2-0.5,1.2-1.2C62.9-62.2,62.3-62.8,61.6-62.8
								L61.6-62.8z"/>
							<path class="st2" d="M69.3-62.8c-0.7,0-1.2,0.5-1.2,1.2s0.5,1.2,1.2,1.2s1.2-0.5,1.2-1.2C70.6-62.2,70-62.8,69.3-62.8
								L69.3-62.8z"/>
							<path class="st2" d="M77-62.8c-0.7,0-1.2,0.5-1.2,1.2s0.5,1.2,1.2,1.2s1.2-0.5,1.2-1.2C78.2-62.2,77.7-62.8,77-62.8L77-62.8z
								"/>
							<path class="st2" d="M84.7-62.8c-0.7,0-1.2,0.5-1.2,1.2s0.5,1.2,1.2,1.2s1.2-0.5,1.2-1.2C85.9-62.2,85.4-62.8,84.7-62.8
								L84.7-62.8z"/>
							<path class="st2" d="M92.4-62.8c-0.7,0-1.2,0.5-1.2,1.2s0.5,1.2,1.2,1.2s1.2-0.5,1.2-1.2C93.6-62.2,93.1-62.8,92.4-62.8
								L92.4-62.8z"/>
							<path class="st2" d="M1.3-61.5L1.3-61.5c0-0.7-0.5-1.2-1.2-1.2v2.4C0.8-60.3,1.3-60.9,1.3-61.5L1.3-61.5z"/>
							<path class="st2" d="M98.9-61.5L98.9-61.5c0-0.7,0.5-1.2,1.2-1.2l0,0C99.4-62.8,98.9-62.2,98.9-61.5L98.9-61.5z"/>
							<path class="st2" d="M7.8-55.1c-0.7,0-1.2,0.5-1.2,1.2s0.5,1.2,1.2,1.2S9-53.2,9-53.9C9-54.5,8.5-55.1,7.8-55.1L7.8-55.1z"/>
							<path class="st2" d="M15.5-55.1c-0.7,0-1.2,0.5-1.2,1.2s0.5,1.2,1.2,1.2c0.7,0,1.2-0.5,1.2-1.2
								C16.7-54.5,16.2-55.1,15.5-55.1L15.5-55.1z"/>
							<path class="st2" d="M23.2-55.1c-0.7,0-1.2,0.5-1.2,1.2s0.5,1.2,1.2,1.2s1.2-0.5,1.2-1.2C24.4-54.5,23.9-55.1,23.2-55.1
								L23.2-55.1z"/>
							<path class="st2" d="M30.9-55.1c-0.7,0-1.2,0.5-1.2,1.2s0.5,1.2,1.2,1.2s1.2-0.5,1.2-1.2C32.1-54.5,31.5-55.1,30.9-55.1
								L30.9-55.1z"/>
							<path class="st2" d="M38.6-55.1c-0.7,0-1.2,0.5-1.2,1.2s0.5,1.2,1.2,1.2s1.2-0.5,1.2-1.2C39.8-54.5,39.2-55.1,38.6-55.1
								L38.6-55.1z"/>
							<path class="st2" d="M46.3-55.1c-0.7,0-1.2,0.5-1.2,1.2s0.5,1.2,1.2,1.2s1.2-0.5,1.2-1.2C47.5-54.5,46.9-55.1,46.3-55.1
								L46.3-55.1z"/>
							<path class="st2" d="M53.9-55.1c-0.7,0-1.2,0.5-1.2,1.2s0.5,1.2,1.2,1.2s1.2-0.5,1.2-1.2C55.2-54.5,54.6-55.1,53.9-55.1
								L53.9-55.1z"/>
							<path class="st2" d="M61.6-55.1c-0.7,0-1.2,0.5-1.2,1.2s0.5,1.2,1.2,1.2s1.2-0.5,1.2-1.2C62.9-54.5,62.3-55.1,61.6-55.1
								L61.6-55.1z"/>
							<path class="st2" d="M69.3-55.1c-0.7,0-1.2,0.5-1.2,1.2s0.5,1.2,1.2,1.2s1.2-0.5,1.2-1.2C70.6-54.5,70-55.1,69.3-55.1
								L69.3-55.1z"/>
							<path class="st2" d="M77-55.1c-0.7,0-1.2,0.5-1.2,1.2s0.5,1.2,1.2,1.2s1.2-0.5,1.2-1.2C78.2-54.5,77.7-55.1,77-55.1L77-55.1z
								"/>
							<path class="st2" d="M84.7-55.1c-0.7,0-1.2,0.5-1.2,1.2s0.5,1.2,1.2,1.2s1.2-0.5,1.2-1.2C85.9-54.5,85.4-55.1,84.7-55.1
								L84.7-55.1z"/>
							<path class="st2" d="M92.4-55.1c-0.7,0-1.2,0.5-1.2,1.2s0.5,1.2,1.2,1.2s1.2-0.5,1.2-1.2C93.6-54.5,93.1-55.1,92.4-55.1
								L92.4-55.1z"/>
							<path class="st2" d="M1.3-53.8L1.3-53.8c0-0.7-0.5-1.2-1.2-1.2v2.4C0.8-52.6,1.3-53.2,1.3-53.8L1.3-53.8z"/>
							<path class="st2" d="M98.9-53.8L98.9-53.8c0-0.7,0.5-1.2,1.2-1.2l0,0C99.4-55.1,98.9-54.5,98.9-53.8L98.9-53.8z"/>
							<path class="st2" d="M7.8-47.4c-0.7,0-1.2,0.5-1.2,1.2S7.1-45,7.8-45S9-45.5,9-46.2C9-46.8,8.5-47.4,7.8-47.4L7.8-47.4z"/>
							<path class="st2" d="M15.5-47.4c-0.7,0-1.2,0.5-1.2,1.2s0.5,1.2,1.2,1.2c0.7,0,1.2-0.5,1.2-1.2
								C16.7-46.8,16.2-47.4,15.5-47.4L15.5-47.4z"/>
							<path class="st2" d="M23.2-47.4c-0.7,0-1.2,0.5-1.2,1.2s0.5,1.2,1.2,1.2s1.2-0.5,1.2-1.2C24.4-46.8,23.9-47.4,23.2-47.4
								L23.2-47.4z"/>
							<path class="st2" d="M30.9-47.4c-0.7,0-1.2,0.5-1.2,1.2s0.5,1.2,1.2,1.2s1.2-0.5,1.2-1.2C32.1-46.8,31.5-47.4,30.9-47.4
								L30.9-47.4z"/>
							<path class="st2" d="M38.6-47.4c-0.7,0-1.2,0.5-1.2,1.2s0.5,1.2,1.2,1.2s1.2-0.5,1.2-1.2C39.8-46.8,39.2-47.4,38.6-47.4
								L38.6-47.4z"/>
							<path class="st2" d="M46.3-47.4c-0.7,0-1.2,0.5-1.2,1.2s0.5,1.2,1.2,1.2s1.2-0.5,1.2-1.2C47.5-46.8,46.9-47.4,46.3-47.4
								L46.3-47.4z"/>
							<path class="st2" d="M53.9-47.4c-0.7,0-1.2,0.5-1.2,1.2s0.5,1.2,1.2,1.2s1.2-0.5,1.2-1.2C55.2-46.8,54.6-47.4,53.9-47.4
								L53.9-47.4z"/>
							<path class="st2" d="M61.6-47.4c-0.7,0-1.2,0.5-1.2,1.2s0.5,1.2,1.2,1.2s1.2-0.5,1.2-1.2C62.9-46.8,62.3-47.4,61.6-47.4
								L61.6-47.4z"/>
							<path class="st2" d="M69.3-47.4c-0.7,0-1.2,0.5-1.2,1.2s0.5,1.2,1.2,1.2s1.2-0.5,1.2-1.2C70.6-46.8,70-47.4,69.3-47.4
								L69.3-47.4z"/>
							<path class="st2" d="M77-47.4c-0.7,0-1.2,0.5-1.2,1.2S76.3-45,77-45s1.2-0.5,1.2-1.2C78.2-46.8,77.7-47.4,77-47.4L77-47.4z"
								/>
							<path class="st2" d="M84.7-47.4c-0.7,0-1.2,0.5-1.2,1.2S84-45,84.7-45s1.2-0.5,1.2-1.2C85.9-46.8,85.4-47.4,84.7-47.4
								L84.7-47.4z"/>
							<path class="st2" d="M92.4-47.4c-0.7,0-1.2,0.5-1.2,1.2s0.5,1.2,1.2,1.2s1.2-0.5,1.2-1.2C93.6-46.8,93.1-47.4,92.4-47.4
								L92.4-47.4z"/>
							<path class="st2" d="M1.3-46.2L1.3-46.2c0-0.7-0.5-1.2-1.2-1.2v2.4C0.8-44.9,1.3-45.5,1.3-46.2L1.3-46.2z"/>
							<path class="st2" d="M98.9-46.2L98.9-46.2c0-0.7,0.5-1.2,1.2-1.2l0,0C99.4-47.4,98.9-46.8,98.9-46.2L98.9-46.2z"/>
							<path class="st2" d="M7.8-39.7c-0.7,0-1.2,0.5-1.2,1.2s0.5,1.2,1.2,1.2S9-37.8,9-38.5C9-39.1,8.5-39.7,7.8-39.7L7.8-39.7z"/>
							<path class="st2" d="M15.5-39.7c-0.7,0-1.2,0.5-1.2,1.2s0.5,1.2,1.2,1.2c0.7,0,1.2-0.5,1.2-1.2
								C16.7-39.1,16.2-39.7,15.5-39.7L15.5-39.7z"/>
							<path class="st2" d="M23.2-39.7c-0.7,0-1.2,0.5-1.2,1.2s0.5,1.2,1.2,1.2s1.2-0.5,1.2-1.2C24.4-39.1,23.9-39.7,23.2-39.7
								L23.2-39.7z"/>
							<path class="st2" d="M30.9-39.7c-0.7,0-1.2,0.5-1.2,1.2s0.5,1.2,1.2,1.2s1.2-0.5,1.2-1.2C32.1-39.1,31.5-39.7,30.9-39.7
								L30.9-39.7z"/>
							<path class="st2" d="M38.6-39.7c-0.7,0-1.2,0.5-1.2,1.2s0.5,1.2,1.2,1.2s1.2-0.5,1.2-1.2C39.8-39.1,39.2-39.7,38.6-39.7
								L38.6-39.7z"/>
							<path class="st2" d="M46.3-39.7c-0.7,0-1.2,0.5-1.2,1.2s0.5,1.2,1.2,1.2s1.2-0.5,1.2-1.2C47.5-39.1,46.9-39.7,46.3-39.7
								L46.3-39.7z"/>
							<path class="st2" d="M53.9-39.7c-0.7,0-1.2,0.5-1.2,1.2s0.5,1.2,1.2,1.2s1.2-0.5,1.2-1.2C55.2-39.1,54.6-39.7,53.9-39.7
								L53.9-39.7z"/>
							<path class="st2" d="M61.6-39.7c-0.7,0-1.2,0.5-1.2,1.2s0.5,1.2,1.2,1.2s1.2-0.5,1.2-1.2C62.9-39.1,62.3-39.7,61.6-39.7
								L61.6-39.7z"/>
							<path class="st2" d="M69.3-39.7c-0.7,0-1.2,0.5-1.2,1.2s0.5,1.2,1.2,1.2s1.2-0.5,1.2-1.2C70.6-39.1,70-39.7,69.3-39.7
								L69.3-39.7z"/>
							<path class="st2" d="M77-39.7c-0.7,0-1.2,0.5-1.2,1.2s0.5,1.2,1.2,1.2s1.2-0.5,1.2-1.2C78.2-39.1,77.7-39.7,77-39.7L77-39.7z
								"/>
							<path class="st2" d="M84.7-39.7c-0.7,0-1.2,0.5-1.2,1.2s0.5,1.2,1.2,1.2s1.2-0.5,1.2-1.2C85.9-39.1,85.4-39.7,84.7-39.7
								L84.7-39.7z"/>
							<path class="st2" d="M92.4-39.7c-0.7,0-1.2,0.5-1.2,1.2s0.5,1.2,1.2,1.2s1.2-0.5,1.2-1.2C93.6-39.1,93.1-39.7,92.4-39.7
								L92.4-39.7z"/>
							<path class="st2" d="M1.3-38.5L1.3-38.5c0-0.7-0.5-1.2-1.2-1.2v2.4C0.8-37.2,1.3-37.8,1.3-38.5L1.3-38.5z"/>
							<path class="st2" d="M98.9-38.5L98.9-38.5c0-0.7,0.5-1.2,1.2-1.2l0,0C99.4-39.7,98.9-39.1,98.9-38.5L98.9-38.5z"/>
							<path class="st2" d="M7.8-32c-0.7,0-1.2,0.5-1.2,1.2s0.5,1.2,1.2,1.2S9-30.1,9-30.8C9-31.5,8.5-32,7.8-32L7.8-32z"/>
							<path class="st2" d="M15.5-32c-0.7,0-1.2,0.5-1.2,1.2s0.5,1.2,1.2,1.2c0.7,0,1.2-0.5,1.2-1.2S16.2-32,15.5-32L15.5-32z"/>
							<path class="st2" d="M23.2-32c-0.7,0-1.2,0.5-1.2,1.2s0.5,1.2,1.2,1.2s1.2-0.5,1.2-1.2C24.4-31.5,23.9-32,23.2-32L23.2-32z"
								/>
							<path class="st2" d="M30.9-32c-0.7,0-1.2,0.5-1.2,1.2s0.5,1.2,1.2,1.2s1.2-0.5,1.2-1.2S31.5-32,30.9-32L30.9-32z"/>
							<path class="st2" d="M38.6-32c-0.7,0-1.2,0.5-1.2,1.2s0.5,1.2,1.2,1.2s1.2-0.5,1.2-1.2S39.2-32,38.6-32L38.6-32z"/>
							<path class="st2" d="M46.3-32c-0.7,0-1.2,0.5-1.2,1.2s0.5,1.2,1.2,1.2s1.2-0.5,1.2-1.2S46.9-32,46.3-32L46.3-32z"/>
							<path class="st2" d="M53.9-32c-0.7,0-1.2,0.5-1.2,1.2s0.5,1.2,1.2,1.2s1.2-0.5,1.2-1.2C55.1-31.5,54.6-32,53.9-32L53.9-32z"
								/>
							<path class="st2" d="M61.6-32c-0.7,0-1.2,0.5-1.2,1.2s0.5,1.2,1.2,1.2s1.2-0.5,1.2-1.2S62.3-32,61.6-32L61.6-32z"/>
							<path class="st2" d="M69.3-32c-0.7,0-1.2,0.5-1.2,1.2s0.5,1.2,1.2,1.2s1.2-0.5,1.2-1.2S70-32,69.3-32L69.3-32z"/>
							<path class="st2" d="M77-32c-0.7,0-1.2,0.5-1.2,1.2s0.5,1.2,1.2,1.2s1.2-0.5,1.2-1.2S77.7-32,77-32L77-32z"/>
							<path class="st2" d="M84.7-32c-0.7,0-1.2,0.5-1.2,1.2s0.5,1.2,1.2,1.2s1.2-0.5,1.2-1.2C85.9-31.5,85.4-32,84.7-32L84.7-32z"
								/>
							<path class="st2" d="M92.4-32c-0.7,0-1.2,0.5-1.2,1.2s0.5,1.2,1.2,1.2s1.2-0.5,1.2-1.2S93.1-32,92.4-32L92.4-32z"/>
							<path class="st2" d="M1.3-30.8L1.3-30.8c0-0.6-0.5-1.2-1.2-1.2v2.4C0.8-29.5,1.3-30.1,1.3-30.8L1.3-30.8z"/>
							<path class="st2" d="M98.9-30.8L98.9-30.8c0-0.7,0.5-1.2,1.2-1.2l0,0C99.4-32,98.9-31.4,98.9-30.8L98.9-30.8z"/>
							<path class="st2" d="M7.8-24.3c-0.7,0-1.2,0.5-1.2,1.2s0.5,1.2,1.2,1.2S9-22.4,9-23.1C9-23.8,8.5-24.3,7.8-24.3L7.8-24.3z"/>
							<path class="st2" d="M15.5-24.3c-0.7,0-1.2,0.5-1.2,1.2s0.5,1.2,1.2,1.2c0.7,0,1.2-0.5,1.2-1.2S16.2-24.3,15.5-24.3
								L15.5-24.3z"/>
							<path class="st2" d="M23.2-24.3c-0.7,0-1.2,0.5-1.2,1.2s0.5,1.2,1.2,1.2s1.2-0.5,1.2-1.2C24.4-23.8,23.9-24.3,23.2-24.3
								L23.2-24.3z"/>
							<path class="st2" d="M30.9-24.3c-0.7,0-1.2,0.5-1.2,1.2s0.5,1.2,1.2,1.2s1.2-0.5,1.2-1.2S31.5-24.3,30.9-24.3L30.9-24.3z"/>
							<path class="st2" d="M38.6-24.3c-0.7,0-1.2,0.5-1.2,1.2s0.5,1.2,1.2,1.2s1.2-0.5,1.2-1.2S39.2-24.3,38.6-24.3L38.6-24.3z"/>
							<path class="st2" d="M46.3-24.3c-0.7,0-1.2,0.5-1.2,1.2s0.5,1.2,1.2,1.2s1.2-0.5,1.2-1.2S46.9-24.3,46.3-24.3L46.3-24.3z"/>
							<path class="st2" d="M53.9-24.3c-0.7,0-1.2,0.5-1.2,1.2s0.5,1.2,1.2,1.2s1.2-0.5,1.2-1.2C55.2-23.8,54.6-24.3,53.9-24.3
								L53.9-24.3z"/>
							<path class="st2" d="M61.6-24.3c-0.7,0-1.2,0.5-1.2,1.2s0.5,1.2,1.2,1.2s1.2-0.5,1.2-1.2C62.9-23.8,62.3-24.3,61.6-24.3
								L61.6-24.3z"/>
							<path class="st2" d="M69.3-24.3c-0.7,0-1.2,0.5-1.2,1.2s0.5,1.2,1.2,1.2s1.2-0.5,1.2-1.2C70.6-23.8,70-24.3,69.3-24.3
								L69.3-24.3z"/>
							<path class="st2" d="M77-24.3c-0.7,0-1.2,0.5-1.2,1.2s0.5,1.2,1.2,1.2s1.2-0.5,1.2-1.2S77.7-24.3,77-24.3L77-24.3z"/>
							<path class="st2" d="M84.7-24.3c-0.7,0-1.2,0.5-1.2,1.2s0.5,1.2,1.2,1.2s1.2-0.5,1.2-1.2C85.9-23.8,85.4-24.3,84.7-24.3
								L84.7-24.3z"/>
							<path class="st2" d="M92.4-24.3c-0.7,0-1.2,0.5-1.2,1.2s0.5,1.2,1.2,1.2s1.2-0.5,1.2-1.2S93.1-24.3,92.4-24.3L92.4-24.3z"/>
							<path class="st2" d="M1.3-23.1L1.3-23.1c0-0.7-0.5-1.2-1.2-1.2v2.4C0.8-21.9,1.3-22.4,1.3-23.1L1.3-23.1z"/>
							<path class="st2" d="M98.9-23.1L98.9-23.1c0-0.7,0.5-1.2,1.2-1.2l0,0C99.4-24.3,98.9-23.8,98.9-23.1L98.9-23.1z"/>
							<path class="st2" d="M7.8-16.6c-0.7,0-1.2,0.5-1.2,1.2s0.5,1.2,1.2,1.2S9-14.7,9-15.4C9-16.1,8.5-16.6,7.8-16.6L7.8-16.6z"/>
							<path class="st2" d="M15.5-16.6c-0.7,0-1.2,0.5-1.2,1.2s0.5,1.2,1.2,1.2c0.7,0,1.2-0.5,1.2-1.2S16.2-16.6,15.5-16.6
								L15.5-16.6z"/>
							<path class="st2" d="M23.2-16.6c-0.7,0-1.2,0.5-1.2,1.2s0.5,1.2,1.2,1.2s1.2-0.5,1.2-1.2C24.4-16.1,23.9-16.6,23.2-16.6
								L23.2-16.6z"/>
							<path class="st2" d="M30.9-16.6c-0.7,0-1.2,0.5-1.2,1.2s0.5,1.2,1.2,1.2s1.2-0.5,1.2-1.2S31.5-16.6,30.9-16.6L30.9-16.6z"/>
							<path class="st2" d="M38.6-16.6c-0.7,0-1.2,0.5-1.2,1.2s0.5,1.2,1.2,1.2s1.2-0.5,1.2-1.2S39.2-16.6,38.6-16.6L38.6-16.6z"/>
							<path class="st2" d="M46.3-16.6c-0.7,0-1.2,0.5-1.2,1.2s0.5,1.2,1.2,1.2s1.2-0.5,1.2-1.2S46.9-16.6,46.3-16.6L46.3-16.6z"/>
							<path class="st2" d="M53.9-16.6c-0.7,0-1.2,0.5-1.2,1.2s0.5,1.2,1.2,1.2s1.2-0.5,1.2-1.2C55.1-16.1,54.6-16.6,53.9-16.6
								L53.9-16.6z"/>
							<path class="st2" d="M61.6-16.6c-0.7,0-1.2,0.5-1.2,1.2s0.5,1.2,1.2,1.2s1.2-0.5,1.2-1.2S62.3-16.6,61.6-16.6L61.6-16.6z"/>
							<path class="st2" d="M69.3-16.6c-0.7,0-1.2,0.5-1.2,1.2s0.5,1.2,1.2,1.2s1.2-0.5,1.2-1.2S70-16.6,69.3-16.6L69.3-16.6z"/>
							<path class="st2" d="M77-16.6c-0.7,0-1.2,0.5-1.2,1.2s0.5,1.2,1.2,1.2s1.2-0.5,1.2-1.2S77.7-16.6,77-16.6L77-16.6z"/>
							<path class="st2" d="M84.7-16.6c-0.7,0-1.2,0.5-1.2,1.2s0.5,1.2,1.2,1.2s1.2-0.5,1.2-1.2C85.9-16.1,85.4-16.6,84.7-16.6
								L84.7-16.6z"/>
							<path class="st2" d="M92.4-16.6c-0.7,0-1.2,0.5-1.2,1.2s0.5,1.2,1.2,1.2s1.2-0.5,1.2-1.2S93.1-16.6,92.4-16.6L92.4-16.6z"/>
							<path class="st2" d="M1.3-15.4L1.3-15.4c0-0.7-0.5-1.2-1.2-1.2v2.4C0.8-14.2,1.3-14.7,1.3-15.4L1.3-15.4z"/>
							<path class="st2" d="M98.9-15.4L98.9-15.4c0-0.7,0.5-1.2,1.2-1.2l0,0C99.4-16.6,98.9-16.1,98.9-15.4L98.9-15.4z"/>
							<path class="st2" d="M7.8-8.9c-0.7,0-1.2,0.5-1.2,1.2s0.5,1.2,1.2,1.2S9-7,9-7.7C9-8.4,8.5-8.9,7.8-8.9L7.8-8.9z"/>
							<path class="st2" d="M15.5-8.9c-0.7,0-1.2,0.5-1.2,1.2s0.5,1.2,1.2,1.2c0.7,0,1.2-0.5,1.2-1.2S16.2-8.9,15.5-8.9L15.5-8.9z"
								/>
							<path class="st2" d="M23.2-8.9c-0.7,0-1.2,0.5-1.2,1.2s0.5,1.2,1.2,1.2s1.2-0.5,1.2-1.2C24.4-8.4,23.9-8.9,23.2-8.9L23.2-8.9
								z"/>
							<path class="st2" d="M30.9-8.9c-0.7,0-1.2,0.5-1.2,1.2s0.5,1.2,1.2,1.2s1.2-0.5,1.2-1.2S31.5-8.9,30.9-8.9L30.9-8.9z"/>
							<path class="st2" d="M38.6-8.9c-0.7,0-1.2,0.5-1.2,1.2s0.5,1.2,1.2,1.2s1.2-0.5,1.2-1.2S39.2-8.9,38.6-8.9L38.6-8.9z"/>
							<path class="st2" d="M46.3-8.9c-0.7,0-1.2,0.5-1.2,1.2s0.5,1.2,1.2,1.2s1.2-0.5,1.2-1.2S46.9-8.9,46.3-8.9L46.3-8.9z"/>
							<path class="st2" d="M53.9-8.9c-0.7,0-1.2,0.5-1.2,1.2s0.5,1.2,1.2,1.2s1.2-0.5,1.2-1.2C55.2-8.4,54.6-8.9,53.9-8.9L53.9-8.9
								z"/>
							<path class="st2" d="M61.6-8.9c-0.7,0-1.2,0.5-1.2,1.2s0.5,1.2,1.2,1.2s1.2-0.5,1.2-1.2C62.9-8.4,62.3-8.9,61.6-8.9L61.6-8.9
								z"/>
							<path class="st2" d="M69.3-8.9c-0.7,0-1.2,0.5-1.2,1.2s0.5,1.2,1.2,1.2s1.2-0.5,1.2-1.2C70.6-8.4,70-8.9,69.3-8.9L69.3-8.9z"
								/>
							<path class="st2" d="M77-8.9c-0.7,0-1.2,0.5-1.2,1.2s0.5,1.2,1.2,1.2s1.2-0.5,1.2-1.2S77.7-8.9,77-8.9L77-8.9z"/>
							<path class="st2" d="M84.7-8.9c-0.7,0-1.2,0.5-1.2,1.2s0.5,1.2,1.2,1.2s1.2-0.5,1.2-1.2C85.9-8.4,85.4-8.9,84.7-8.9L84.7-8.9
								z"/>
							<path class="st2" d="M92.4-8.9c-0.7,0-1.2,0.5-1.2,1.2s0.5,1.2,1.2,1.2s1.2-0.5,1.2-1.2S93.1-8.9,92.4-8.9L92.4-8.9z"/>
							<path class="st2" d="M1.3-7.7L1.3-7.7c0-0.7-0.5-1.2-1.2-1.2v2.4C0.8-6.5,1.3-7,1.3-7.7L1.3-7.7z"/>
							<path class="st2" d="M98.9-7.7L98.9-7.7c0-0.7,0.5-1.2,1.2-1.2l0,0C99.4-8.9,98.9-8.4,98.9-7.7L98.9-7.7z"/>
							<path class="st2" d="M98.9-92.3L98.9-92.3c0,0.3,0.1,0.6,0.4,0.9c0.2,0.2,0.5,0.4,0.9,0.4v-2.4C99.4-93.5,98.9-93,98.9-92.3
								L98.9-92.3z"/>
							<path class="st2" d="M98.9-84.6L98.9-84.6c0,0.3,0.1,0.6,0.4,0.9c0.2,0.2,0.5,0.4,0.9,0.4v-2.4c-0.3,0-0.6,0.1-0.9,0.4
								C99-85.3,98.9-85,98.9-84.6L98.9-84.6z"/>
							<path class="st2" d="M98.9-76.9L98.9-76.9c0,0.7,0.5,1.2,1.2,1.2v-2.4C99.4-78.1,98.9-77.6,98.9-76.9L98.9-76.9z"/>
							<path class="st2" d="M98.9-69.2L98.9-69.2c0,0.7,0.5,1.2,1.2,1.2v-2.4C99.4-70.5,98.9-69.9,98.9-69.2L98.9-69.2z"/>
							<path class="st2" d="M98.9-61.5L98.9-61.5c0,0.7,0.5,1.2,1.2,1.2v-2.4C99.4-62.8,98.9-62.2,98.9-61.5L98.9-61.5z"/>
							<path class="st2" d="M98.9-53.8L98.9-53.8c0,0.7,0.5,1.2,1.2,1.2V-55C99.4-55.1,98.9-54.5,98.9-53.8L98.9-53.8z"/>
							<path class="st2" d="M98.9-46.2L98.9-46.2c0,0.7,0.5,1.2,1.2,1.2v-2.4C99.4-47.4,98.9-46.8,98.9-46.2L98.9-46.2z"/>
							<path class="st2" d="M98.9-38.5L98.9-38.5c0,0.7,0.5,1.2,1.2,1.2v-2.4C99.4-39.7,98.9-39.1,98.9-38.5L98.9-38.5z"/>
							<path class="st2" d="M98.9-30.8L98.9-30.8c0,0.7,0.5,1.2,1.2,1.2V-32C99.4-32,98.9-31.4,98.9-30.8L98.9-30.8z"/>
							<path class="st2" d="M98.9-23.1L98.9-23.1c0,0.7,0.5,1.2,1.2,1.2v-2.4C99.4-24.3,98.9-23.8,98.9-23.1L98.9-23.1z"/>
							<path class="st2" d="M98.9-15.4L98.9-15.4c0,0.7,0.5,1.2,1.2,1.2v-2.4C99.4-16.6,98.9-16.1,98.9-15.4L98.9-15.4z"/>
							<path class="st2" d="M98.9-7.7L98.9-7.7c0,0.7,0.5,1.2,1.2,1.2v-2.4C99.4-8.9,98.9-8.4,98.9-7.7L98.9-7.7z"/>
							<path class="st2" d="M100.1-1.2c-0.7,0-1.2,0.5-1.2,1.2h1.2V-1.2L100.1-1.2z"/>
						</g>
					</g>
				</g>
			</g>
		</g>
	</g>
</pattern>
<path class="st0" d="M952.4,643.5"/>
<circle class="st3" cx="1293.5" cy="675.8" r="125"/>
<pattern  id="SVGID_2_" xlink:href="#SVGID_1_3" patternTransform="matrix(1 0 0 -1 289.1957 -50786.0352)">
</pattern>
<polygon class="st4" points="1335.3,994.1 858.7,994.1 942.9,568.6 1335.3,664.1 "/>
<path class="st0" d="M1097,535.2"/>
<circle class="st3" cx="1035.5" cy="558.3" r="23.1"/>
<path class="st5" d="M466.8,420.8c46.2,16.1,80.1,91.9,63.2,148.3c-17.4,57.9-90.4,83-236.5,133.1c-40.8,14-74,22.6-115.5,22.6
	c-160.4,0-290.3-123.2-290.3-275.3S17.8,174,178,174c53.4,0,95.4-2.2,115.3,22.4c31.7,39.2-30.3,96,2.6,163.6
	c1.4,2.9,23.1,45.9,68.4,60.8C408.8,436.3,432.2,408.8,466.8,420.8z"/>
<ellipse transform="matrix(0.7071 -0.7071 0.7071 0.7071 -83.4212 82.8025)" class="st6" cx="58.2" cy="142.1" rx="17.8" ry="17.7"/>
</svg>
