<?xml version="1.0" encoding="utf-8"?>
<!-- Generator: Adobe Illustrator 23.0.2, SVG Export Plug-In . SVG Version: 6.00 Build 0)  -->
<svg version="1.1" id="Camada_1" xmlns="http://www.w3.org/2000/svg" xmlns:xlink="http://www.w3.org/1999/xlink" x="0px" y="0px"
	 viewBox="0 0 846.8 888.3" style="enable-background:new 0 0 846.8 888.3;" xml:space="preserve">
<style type="text/css">
	.st0{fill:none;}
	.st1{fill:url(#SVGID_1_);}
	.st2{clip-path:url(#SVGID_3_);}
</style>
<g>
	<path class="st0" d="M620.6,759.7"/>
	<g>
		<path class="st0" d="M768.4,646.1"/>
		<g>
			
				<linearGradient id="SVGID_1_" gradientUnits="userSpaceOnUse" x1="0" y1="498.8645" x2="758.8779" y2="498.8645" gradientTransform="matrix(1 0 0 1 0 8)">
				<stop  offset="0" style="stop-color:#FFFFFF"/>
				<stop  offset="0.7835" style="stop-color:#3DDEED"/>
			</linearGradient>
			<path class="st1" d="M679.6,469.9c54.3,20.9,94,118.8,74.1,191.7C733.3,736.6,647.6,769,476.1,833.8
				c-47.9,18.1-86.8,29.2-135.5,29.2C152.3,863,0,703.6,0,506.9s152.5-356.1,340.6-356.1c62.7,0,111.9-2.8,135.3,29
				c37.2,50.7-35.6,124.2,3,211.6c1.7,3.8,27.1,59.4,80.3,78.7C611.4,490,639,454.4,679.6,469.9z"/>
			<g>
				<g>
					<defs>
						<path id="SVGID_2_" d="M115.5,0h620.1c0,233.1,0,466,0,699c-9,9.9-23,24.4-42.5,39.1c-13.8,10.5-29.4,20.5-104.6,52.1
							c-74.9,31.4-114.2,44.7-126.9,48.9c-26.2,8.7-39.3,12.9-50.9,15.5c-68.5,15.3-124.1,4.6-144.5-0.2
							c-22.1-5.2-58.8-16.1-99.2-41.1c-26.4-16.3-46.4-33.8-60.6-47.9C109.5,510.5,112.5,255.1,115.5,0z"/>
					</defs>
					<clipPath id="SVGID_3_">
						<use xlink:href="#SVGID_2_"  style="overflow:visible;"/>
					</clipPath>
					<g class="st2">
						
							<image style="overflow:visible;enable-background:new    ;" width="3120" height="4160" xlink:href="../../../../Pictures/foto_rafa.png"  transform="matrix(0.1988 0 0 0.2134 116.0513 0.4732)">
						</image>
					</g>
				</g>
			</g>
		</g>
	</g>
</g>
</svg>
