<?xml version="1.0" encoding="utf-8"?>
<!-- Generator: Adobe Illustrator 23.0.2, SVG Export Plug-In . SVG Version: 6.00 Build 0)  -->
<svg version="1.1" id="layer" xmlns="http://www.w3.org/2000/svg" xmlns:xlink="http://www.w3.org/1999/xlink" x="0px" y="0px"
	 viewBox="0 0 652 652" style="enable-background:new 0 0 652 652;" xml:space="preserve">
<style type="text/css">
	.st0{fill:#3880FF;}
</style>
<g id="icon">
	<path id="Shape" class="st0" d="M326,180.73c-81.31,0-147.31,66-147.31,147.31s66,147.31,147.31,147.31s147.31-66,147.31-147.31
		C472.99,246.41,406.99,180.73,326,180.73z"/>
	<circle id="Oval" class="st0" cx="537.08" cy="126.52" r="67.28"/>
	<path id="Shape_1_" class="st0" d="M619.67,193.8l-2.55-6.06l-4.46,5.42c-10.84,12.44-25.19,22-40.49,27.74l-4.46,1.91l1.91,4.46
		c13.71,32.2,20.09,66.32,20.09,101.08c0,145.4-118.3,264.01-264.01,264.01S61.99,473.75,61.99,328.36S180.28,64.34,326,64.34
		c39.54,0,77.16,8.93,112.87,25.51l3.83,1.91l1.91-4.46c6.7-15.31,16.58-28.7,29.97-39.22l5.42-4.46l-6.06-3.19
		C427.71,16.84,378.29,4.4,326,4.4C148.08,4.4,3,149.48,3,327.4s145.08,323,323,323s323-145.08,323-323
		C648.68,281.17,638.8,236.53,619.67,193.8z"/>
</g>
</svg>
