<?xml version="1.0" encoding="utf-8"?>
<!-- Generator: Adobe Illustrator 23.0.2, SVG Export Plug-In . SVG Version: 6.00 Build 0)  -->
<svg version="1.1" id="svg2" xmlns="http://www.w3.org/2000/svg" xmlns:xlink="http://www.w3.org/1999/xlink" x="0px" y="0px"
	 viewBox="0 0 600 600" style="enable-background:new 0 0 600 600;" xml:space="preserve">
<style type="text/css">
	.st0{clip-path:url(#SVGID_2_);}
	.st1{fill:#00749A;}
	.st2{fill:#464342;}
</style>
<g>
	<g>
		<g>
			<g>
				<defs>
					<rect id="SVGID_1_" x="10" y="10" width="580" height="580.01"/>
				</defs>
				<clipPath id="SVGID_2_">
					<use xlink:href="#SVGID_1_"  style="overflow:visible;"/>
				</clipPath>
				<g class="st0">
					<path class="st1" d="M1492.6,238.3h-100.63v10.67c31.48,0,36.53,6.74,36.53,46.65v71.96c0,39.91-5.05,47.23-36.53,47.23
						c-24.16-3.38-40.47-16.31-62.96-41.04l-25.85-28.11c34.85-6.19,53.4-28.11,53.4-52.85c0-30.91-26.42-54.52-75.89-54.52h-98.94
						v10.67c31.48,0,36.53,6.74,36.53,46.65v71.96c0,39.91-5.05,47.23-36.53,47.23v10.68h111.86v-10.68
						c-31.47,0-36.53-7.31-36.53-47.23v-20.23h9.56l62.4,78.13h163.59c80.38,0,115.24-42.72,115.24-93.88
						C1607.84,280.45,1572.99,238.3,1492.6,238.3L1492.6,238.3z M1257.06,329.92v-74.76h23.04c25.29,0,36.54,17.43,36.54,37.66
						c0,19.68-11.25,37.1-36.54,37.1L1257.06,329.92L1257.06,329.92z M1494.29,408.06h-3.94c-20.23,0-23.04-5.05-23.04-30.91V255.16
						c0,0,24.74,0,26.98,0c58.47,0,69.14,42.72,69.14,75.89C1563.43,365.34,1552.75,408.06,1494.29,408.06z"/>
					<path class="st1" d="M868.62,350.73l38.78-114.69c11.25-33.16,6.19-42.71-29.79-42.71v-11.25h105.68v11.25
						c-35.41,0-43.84,8.42-57.89,49.46l-64.09,192.26H854l-57.35-175.96L738.2,435.05h-7.31l-62.4-192.26
						C655,201.75,646,193.33,613.4,193.33v-11.25h124.8v11.25c-33.18,0-42.17,7.87-30.36,42.71l37.66,114.69l56.77-168.65h10.69
						L868.62,350.73z"/>
					<path class="st1" d="M1059.74,432.8c-61.84,0-112.43-45.53-112.43-101.19c0-55.1,50.59-100.62,112.43-100.62
						c61.83,0,112.43,45.53,112.43,100.62C1172.17,387.27,1121.58,432.8,1059.74,432.8z M1059.74,248.42
						c-51.71,0-69.71,46.65-69.71,83.19c0,37.11,18,83.2,69.71,83.2c52.29,0,70.27-46.1,70.27-83.2
						C1130.02,295.06,1112.03,248.42,1059.74,248.42z"/>
					<path class="st2" d="M1746.69,414.25v11.24h-128.73v-11.24c37.67,0,44.41-9.56,44.41-65.78v-89.93
						c0-56.22-6.74-65.21-44.41-65.21v-11.25h116.36c57.9,0,89.95,29.79,89.95,69.71c0,38.79-32.05,69.14-89.95,69.14h-32.05v27.53
						C1702.27,404.7,1709.01,414.25,1746.69,414.25z M1734.31,202.31h-32.05v97.82h32.05c31.48,0,46.1-21.92,46.1-48.34
						C1780.41,224.8,1765.8,202.31,1734.31,202.31z"/>
					<path class="st2" d="M2210.46,372.65l-2.81,10.12c-5.05,18.55-11.25,25.3-51.16,25.3h-7.87c-29.23,0-34.28-6.74-34.28-46.65
						v-25.86c43.85,0,47.22,3.93,47.22,33.17h10.68v-83.77h-10.68c0,29.23-3.38,33.17-47.22,33.17v-62.96h30.91
						c39.92,0,46.1,6.75,51.16,25.3l2.82,10.68h8.99l-3.93-52.84h-165.28v10.67c31.47,0,36.54,6.75,36.54,46.65v71.96
						c0,36.51-4.29,45.71-29.11,47.03c-23.59-3.61-39.78-16.47-61.94-40.84l-25.86-28.11c34.86-6.19,53.41-28.11,53.41-52.85
						c0-30.91-26.42-54.52-75.89-54.52h-98.94v10.67c31.47,0,36.54,6.75,36.54,46.66v71.96c0,39.91-5.06,47.23-36.54,47.23v10.68
						h111.87v-10.68c-31.47,0-36.54-7.31-36.54-47.23v-20.23h9.56l62.4,78.13h231.04l3.38-52.83L2210.46,372.65L2210.46,372.65z
						 M1912.52,329.92v-74.76h23.04c25.3,0,36.55,17.43,36.55,37.66c0,19.68-11.25,37.1-36.55,37.1L1912.52,329.92L1912.52,329.92z"
						/>
					<path class="st2" d="M2324.57,432.8c-22.49,0-42.17-11.8-50.6-19.12c-2.81,2.82-7.87,11.25-8.99,19.12h-10.68v-77.58h11.24
						c4.5,37.11,30.35,59.03,63.52,59.03c17.99,0,32.61-10.12,32.61-26.98c0-14.61-12.93-25.86-35.98-36.54l-32.05-15.18
						c-22.49-10.69-39.35-29.25-39.35-53.97c0-26.98,25.3-50.03,60.15-50.03c18.55,0,34.29,6.75,43.85,14.62
						c2.81-2.26,5.62-8.44,7.31-15.19h10.68v66.34h-11.81c-3.94-26.43-18.55-48.35-48.34-48.35c-15.74,0-30.36,8.99-30.36,23.06
						c0,14.61,11.8,22.48,38.79,34.84l30.91,15.18c26.99,12.93,37.66,33.74,37.66,50.6C2393.15,408.06,2362.23,432.8,2324.57,432.8
						L2324.57,432.8z"/>
					<path class="st2" d="M2497.71,432.8c-22.49,0-42.17-11.8-50.59-19.12c-2.81,2.82-7.87,11.25-8.99,19.12h-10.68v-77.58h11.24
						c4.5,37.11,30.35,59.03,63.52,59.03c17.99,0,32.61-10.12,32.61-26.98c0-14.61-12.93-25.86-35.98-36.54l-32.05-15.18
						c-22.49-10.69-39.35-29.25-39.35-53.97c0-26.98,25.3-50.03,60.15-50.03c18.55,0,34.28,6.75,43.85,14.62
						c2.81-2.26,5.62-8.44,7.3-15.19h10.69v66.34h-11.8c-3.94-26.43-18.55-48.35-48.34-48.35c-15.74,0-30.36,8.99-30.36,23.06
						c0,14.61,11.81,22.48,38.79,34.84l30.91,15.18c26.98,12.93,37.66,33.74,37.66,50.6C2566.29,408.06,2535.37,432.8,2497.71,432.8
						L2497.71,432.8z"/>
					<g>
						<path class="st1" d="M51.22,299.99c0,98.48,57.23,183.58,140.21,223.91L72.76,198.74C58.96,229.69,51.22,263.93,51.22,299.99z
							"/>
						<path class="st1" d="M467.96,287.44c0-30.75-11.04-52.04-20.52-68.61c-12.6-20.49-24.42-37.85-24.42-58.34
							c0-22.87,17.34-44.16,41.77-44.16c1.1,0,2.15,0.14,3.23,0.2C423.74,75.98,364.77,51.22,300,51.22
							c-86.92,0-163.38,44.59-207.86,112.14c5.84,0.18,11.35,0.29,16.01,0.29c26.02,0,66.31-3.16,66.31-3.16
							c13.41-0.79,14.99,18.91,1.6,20.49c0,0-13.48,1.59-28.48,2.37l90.6,269.48l54.45-163.29l-38.77-106.19
							c-13.4-0.79-26.09-2.37-26.09-2.37c-13.41-0.79-11.83-21.28,1.57-20.49c0,0,41.08,3.16,65.53,3.16
							c26.02,0,66.3-3.16,66.3-3.16c13.42-0.79,15,18.91,1.6,20.49c0,0-13.5,1.59-28.47,2.37l89.91,267.44L449,367.86
							C459.77,333.45,467.96,308.74,467.96,287.44z"/>
						<path class="st1" d="M304.37,321.75l-74.64,216.89c22.29,6.56,45.85,10.14,70.28,10.14c28.97,0,56.75-5.02,82.62-14.1
							c-0.68-1.06-1.28-2.19-1.77-3.43L304.37,321.75z"/>
						<path class="st1" d="M518.3,180.63c1.07,7.92,1.67,16.44,1.67,25.58c0,25.25-4.71,53.63-18.92,89.11l-75.99,219.71
							c73.96-43.13,123.71-123.26,123.71-215.05C548.78,256.74,537.73,216.07,518.3,180.63z"/>
						<path class="st1" d="M300,10c-159.91,0-290,130.09-290,290c0,159.92,130.09,290.02,290,290.02
							c159.9,0,290.02-130.09,290.02-290.02C590.02,140.09,459.91,10,300,10z M300,576.71c-152.57,0-276.71-124.14-276.71-276.72
							C23.3,147.42,147.43,23.3,300,23.3c152.57,0,276.7,124.13,276.7,276.69C576.7,452.57,452.57,576.71,300,576.71z"/>
					</g>
				</g>
			</g>
		</g>
	</g>
</g>
</svg>
